<svg width="197" height="140" viewBox="0 0 197 140" fill="none" xmlns="http://www.w3.org/2000/svg">
<g opacity="0.2">
<path d="M102.947 3.49519C102.746 3.36262 102.839 3.30882 102.947 3.49519V3.49519Z" fill="url(#paint0_linear)"/>
<path d="M106.924 115.939C106.831 115.993 106.831 115.993 106.831 115.993C106.899 116.327 106.914 116.567 106.948 116.733L106.924 115.939Z" fill="url(#paint1_linear)"/>
<path d="M85.8649 123.687C85.7914 123.668 85.7914 123.668 85.7179 123.648C85.752 123.815 85.7861 123.981 85.8649 123.687Z" fill="url(#paint2_linear)"/>
<path d="M130.765 73.4123C130.804 73.2653 130.77 73.0986 130.716 73.0055C130.77 73.0986 130.73 73.2456 130.765 73.4123Z" fill="url(#paint3_linear)"/>
<path d="M66.2742 -6.33116C66.2742 -6.33116 66.3477 -6.31147 66.3674 -6.38496C66.2939 -6.40466 66.2401 -6.49784 66.0931 -6.53722L66.2742 -6.33116Z" fill="url(#paint4_linear)"/>
<path d="M66.6325 -6.78653C67.1273 -6.57519 66.5341 -6.41907 66.3477 -6.31147C66.8963 -6.00695 67.3569 -5.96229 67.8963 -6.2116C67.8478 -6.61844 66.8674 -6.48729 66.6325 -6.78653Z" fill="url(#paint5_linear)"/>
<path d="M19.232 36.3593L19.2714 36.2123C19.1782 36.2661 19.232 36.3593 19.232 36.3593Z" fill="url(#paint6_linear)"/>
<path d="M117.931 71.6277C117.951 71.5542 117.97 71.4807 117.99 71.4072C117.877 71.5345 117.857 71.608 117.931 71.6277Z" fill="url(#paint7_linear)"/>
<path d="M23.0217 27.2136L22.9141 27.0273C22.9482 27.1939 23.0217 27.2136 23.0217 27.2136Z" fill="url(#paint8_linear)"/>
<path d="M107.001 116.827L106.996 117.14C107.016 117.067 106.962 116.974 107.001 116.827Z" fill="url(#paint9_linear)"/>
<path d="M65.2839 124.947C65.2695 124.707 65.2551 124.466 65.221 124.3L65.1475 124.28L65.2839 124.947Z" fill="url(#paint10_linear)"/>
<path d="M16.0099 54.5579L15.9849 54.945C16.0243 54.7981 15.9902 54.6314 16.0099 54.5579Z" fill="url(#paint11_linear)"/>
<path d="M40.3417 113.38C40.2485 113.434 40.1553 113.487 40.1356 113.561C40.4046 114.027 41.4283 114.616 42.7996 115.377L43.2564 114.555C42.3207 114.225 41.3312 113.802 40.3417 113.38Z" fill="url(#paint12_linear)"/>
<path d="M33.3637 83.8623C33.5736 84.5487 33.6903 85.2889 33.8806 86.0488C31.0158 84.0997 29.3518 82.0785 27.7955 80.2436C26.2589 78.3353 24.7957 76.4466 22.8287 73.7928L23.1568 74.0382C23.0348 73.6117 22.3733 73.4345 21.5466 72.1102C20.7199 70.7859 19.6742 68.2215 18.9305 63.0598L19.004 63.0795C18.9358 62.7461 18.8623 62.7264 18.7456 61.9862L18.9003 63.7606C18.5486 62.7211 18.0841 61.809 17.8507 60.3286C17.8559 60.015 17.8953 59.868 17.9688 59.8877C17.8862 59.3141 17.7497 58.6474 17.7406 58.0936L17.6056 56.2458C17.6306 55.8586 17.6555 55.4715 17.7343 55.1775C17.6517 54.604 17.5441 54.4176 17.4758 54.0843C17.4273 53.6774 17.3644 53.0304 17.5916 51.5947C17.2962 52.697 17.5982 50.0999 17.4263 50.4476C17.4657 50.3006 17.5641 49.9332 17.6232 49.7127C17.786 48.8111 17.8806 47.5762 18.1222 46.3806C18.3441 45.2585 18.5463 44.21 18.591 43.7493C18.591 43.7493 18.4728 44.1903 18.2956 44.8517C18.1183 45.5131 17.8085 46.3753 17.6064 47.4239C17.0944 49.3347 16.6506 51.5788 16.4878 52.4804C16.8436 49.9764 16.5915 51.7993 16.3802 52.2941L16.4143 52.4607C16.2409 53.9897 16.0939 53.9503 15.9705 54.7049C15.9705 54.7049 15.9705 54.7049 15.9902 54.6314L15.9364 54.5382C15.9561 54.4647 16.0099 54.5579 15.9902 54.6314C15.9902 54.6314 16.044 54.7246 16.019 55.1117L16.0387 55.0382C16.0282 55.6655 15.9729 56.7535 15.9086 57.2876L15.7419 57.3218C15.8245 57.8953 15.7194 59.7575 15.5749 61.7668C15.45 63.7026 15.2858 65.7853 15.3093 66.5793C15.1859 67.3339 15.3368 68.2408 15.4876 69.1476C15.6385 70.0545 15.8628 70.9811 15.9008 72.0152C16.4018 75.1427 15.688 73.6911 15.6419 75.3329C15.8111 77.3475 16.0199 74.8041 16.2102 75.564C16.2337 76.3579 16.2376 77.2254 16.168 78.0732C15.8216 76.7201 15.752 77.5679 15.5997 77.8422C15.7847 78.9157 15.8909 80.2833 16.1296 81.45C16.3684 82.6167 16.6465 83.6365 17.2541 83.7205C17.4876 85.2009 17.5112 85.9949 17.5203 86.5487C17.5294 87.1026 17.5045 87.4897 17.7341 88.1026C17.7788 87.642 17.6279 86.7351 17.8143 86.6275C17.7735 87.9556 18.1568 87.1131 18.0544 86.6131C18.578 87.3048 19.0555 89.6382 19.6262 91.9179C19.8847 93.0111 20.2363 94.0506 20.5735 94.8498C20.9304 95.5756 21.2926 95.9877 21.6457 95.846L21.4396 96.0271C22.5722 95.6217 23.1472 94.3579 24.3177 94.9866L24.3557 96.0208L25.5263 96.6495C25.7506 97.5761 25.2165 97.5118 25.1233 97.5655C26.7637 98.7928 28.1231 101.363 29.8067 103.31C29.9801 101.781 30.2467 100.199 30.5473 98.7826C30.7231 99.3023 30.9527 99.9152 31.2559 100.548C31.559 101.18 31.8621 101.813 32.1849 102.372C32.8305 103.49 33.4813 104.295 34.0601 103.899L34.1951 105.746C35.0795 108.031 35.8682 108.321 36.4811 108.092C37.0743 107.936 37.5455 107.353 38.0494 108.118C38.3866 108.918 38.6307 109.771 39.0611 110.516C38.4587 110.118 37.9299 109.74 37.3275 109.343C38.6437 111.192 39.2014 112.05 40.1501 113.801C40.0963 113.708 40.0425 113.615 40.0818 113.468L40.3561 113.62C40.9743 113.077 42.1358 113.152 43.4336 113.893C44.3103 114.443 45.2854 114.626 46.3484 115.068C47.3575 115.417 48.435 116.1 49.7958 117.488L51.145 116.275C51.855 116.859 52.5649 117.443 53.2749 118.027L52.8666 119.256C52.2787 119.099 51.49 118.809 50.6815 118.592C49.8928 118.302 48.9374 118.046 48.0752 117.736C47.1395 117.407 46.2038 117.077 45.3416 116.767C44.4991 116.384 43.6369 116.074 42.8679 115.711L42.583 116.186C43.4793 116.662 44.5082 116.938 45.3704 117.248C46.3061 117.577 47.1343 117.72 47.7366 118.118C48.2261 118.643 49.3218 120.433 47.8755 120.833L49.4937 120.086C51.0712 120.666 52.247 120.981 53.2562 121.33C54.2654 121.679 55.0738 121.896 55.8625 122.186C56.6513 122.476 57.4938 122.859 58.5765 123.228C59.6395 123.671 60.9229 124.172 62.6473 124.792L62.1435 124.026C62.8836 123.91 63.6042 123.866 64.1383 123.931C64.6724 123.995 65.1672 124.206 65.2695 124.707C69.5229 125.295 73.9771 126.016 77.0388 127.23L77.5455 125.633C78.4327 125.555 80.1504 127.67 80.3343 125.514C80.9669 125.21 81.5457 124.814 82.1783 124.511C83.3988 124.366 84.042 123.435 85.5853 123.849C85.6588 123.868 85.8058 123.908 85.8793 123.927C85.899 123.854 85.8255 123.834 85.8255 123.834C88.6878 123.735 85.5329 122.574 88.7824 122.5C90.0265 123.148 89.3535 120.369 90.8877 120.228C91.5438 120.719 92.2734 121.23 93.0228 121.667C96.0859 121.7 95.863 119.592 99.4184 117.788C101.379 117.526 103.079 118.532 102.547 120.517C103.383 117.984 102.774 119.081 104.433 117.005C105.109 117.422 104.957 117.697 104.794 118.598C107.108 118.194 105.609 117.32 106.953 116.42C106.626 114.993 105.943 112.841 106.281 112.459L105.58 112.429C106.091 111.699 106.602 110.969 107.24 110.353C107.558 110.044 107.931 109.829 108.324 109.54C108.696 109.325 109.143 109.13 109.589 108.934L109.912 109.493C110.363 108.984 110.815 108.475 111.266 107.966L111.903 108.53C112.56 107.84 113.237 107.076 113.895 106.386C113.728 106.42 113.635 106.474 113.468 106.508C113.694 106.253 114.092 105.651 114.637 105.088C115.181 104.525 115.819 103.908 116.378 103.585L116.667 103.978C117.486 103.567 118.178 103.044 118.742 102.407C119.306 101.771 119.743 101.021 120.107 100.252C120.927 98.6604 121.547 96.936 122.573 95.1631L122.945 96.129C124.323 95.3955 122.132 95.0449 123.315 93.8652L124.211 94.3417C123.822 92.2681 125.399 92.8483 126.223 92.1239L124.954 91.8626L125.8 89.8836C126.423 89.0267 126.923 88.9244 127.271 89.0963C127.619 89.2683 127.961 89.7539 128.196 90.0531L127.894 88.2394L128.943 88.4416C128.195 86.8233 129.513 87.4915 129.51 85.4428C129.897 85.4678 129.98 86.0413 130.285 85.4928L130.056 83.6987L129.808 81.9782C129.871 82.6252 129.915 83.3457 129.884 84.0465L128.606 83.2314C128.109 80.9714 129.476 80.8652 129.41 79.3507C129.478 79.6841 129.546 80.0174 129.595 80.4243C129.798 78.1945 130.332 78.2589 130.868 77.1421C130.549 77.4505 130.117 77.8862 130.113 77.0187C130.144 76.3179 130.633 76.8429 130.864 76.2746C130.443 76.083 130.267 75.5633 130.204 74.9162C130.087 74.176 130.211 73.4214 130.461 72.7797C130.608 72.8191 130.662 72.9123 130.716 73.0055C130.668 72.5986 130.486 72.3926 130.717 71.8243L131.521 72.3546L130.861 70.9962C131.224 70.2272 130.618 68.962 131.186 69.193L131.289 69.693C131.507 67.7035 131.651 65.6942 131.629 63.7191L132.183 63.71C131.801 63.3713 131.851 62.597 131.901 61.8227C131.931 61.1219 131.868 60.4749 131.442 60.5969C131.673 60.0287 131.488 58.9551 131.41 58.0679C131.333 57.1808 131.27 56.5337 131.819 56.8383C131.79 56.3579 131.687 55.8579 131.639 55.4511C131.517 55.0245 131.468 54.6177 131.346 54.1911C131.176 53.3578 130.986 52.5979 130.722 51.8183C130.268 50.2788 129.927 48.6121 129.523 46.2983C129.922 44.5148 128.408 40.1707 127.348 37.366C125.021 31.9378 123.138 28.6764 119.939 23.5657C119.715 22.6391 119.25 21.7269 118.732 20.7216C118.194 19.7898 117.489 18.892 116.785 17.9943C115.302 16.1791 113.706 14.4913 112.703 12.6473L111.621 12.2784C111.337 11.5723 110.868 10.9738 110.344 10.2822C109.801 9.66399 109.184 9.02612 108.494 8.36856C107.187 7.07312 105.62 5.86559 104.451 4.05571C103.515 3.72622 103.094 3.53458 102.893 3.40201C103.02 3.51489 103.162 3.86793 102.97 4.28919C102.305 3.24447 100.252 2.37943 100.856 1.59599L101.15 1.67476C101.489 1.29288 100.739 0.855796 99.8432 0.379323C98.9272 -0.0236581 97.8104 -0.559207 97.4731 -1.35848L97.5596 0.0825267C96.977 -0.388669 96.4481 -0.766681 95.8458 -1.16439L96.4534 -1.08034C94.2289 -1.59761 92.3378 -2.1831 90.6134 -2.80269C89.7512 -3.11249 88.9822 -3.47609 88.1935 -3.76619C87.4244 -4.12979 86.6357 -4.41989 85.9402 -4.7638C85.225 -5.03421 84.4362 -5.32432 83.721 -5.59473C82.9323 -5.88483 82.1436 -6.17494 81.2958 -6.24457C80.4677 -6.38769 79.5464 -6.47701 78.6054 -6.49284C77.6447 -6.43518 76.5909 -6.32371 75.5173 -6.13876C76.1749 -6.82902 75.6749 -6.7267 75.0817 -6.57057C74.4885 -6.41445 73.7483 -6.29771 73.7444 -7.1652C72.7313 -8.38187 71.6775 -8.27041 70.6721 -7.7521C70.2062 -7.4831 69.7403 -7.2141 69.2547 -6.87161C68.7691 -6.52912 68.3767 -6.24043 67.9501 -6.11841C67.9304 -6.04492 67.9107 -5.97143 67.8517 -5.75095L66.2834 -5.77733C65.7295 -5.7682 65.2492 -5.73936 64.7689 -5.71053C65.6378 -6.89554 65.1128 -6.40607 64.5681 -5.8431C64.0234 -5.28014 63.4787 -4.71717 64.2885 -5.6817C60.1965 -5.99046 55.4902 -4.88847 51.0817 -2.84021C46.6733 -0.791958 42.5285 2.03588 38.8838 4.76139L39.4179 4.82574C38.5202 5.53042 37.6172 6.54875 36.6998 7.32691C35.8361 8.19826 34.9922 8.99612 34.2467 9.42652C33.5013 9.85692 33.0248 10.7532 32.6415 11.5958C32.2582 12.4383 32.0613 13.1732 31.8355 13.4278C30.9758 15.1666 29.3575 15.9145 29.9022 15.3516C29.3719 16.1547 28.9493 17.1442 28.5266 18.1337C28.0304 19.1035 27.5343 20.0733 26.7048 21.1114C26.4449 21.1993 26.1601 21.6743 25.8359 22.2964C25.5116 22.9184 25.0549 23.7412 24.7647 24.53C24.4011 25.299 24.0376 26.068 23.8065 26.6362C23.502 27.1848 23.3301 27.5326 23.2566 27.5129L23.2369 27.5864C21.5082 30.5102 20.6811 33.5969 19.3344 36.8593C19.3344 36.8593 19.354 36.7859 19.3934 36.6389C19.0784 37.8147 18.8368 39.0103 18.5952 40.2059C18.3536 41.4014 18.112 42.597 17.8901 43.7191L19.2105 42.0249C20.0362 40.1194 20.9157 38.307 22.0891 36.5735C23.2927 34.1391 24.7169 31.7638 26.3956 29.6143C28.0743 27.4647 29.9342 25.5212 31.9016 23.7641C33.6577 22.5018 35.5213 21.4258 37.4191 20.5165C38.4048 20.0716 39.3707 19.7003 40.4101 19.3487L41.8761 18.875L43.3959 18.4946C47.9264 16.8729 52.4804 16.0451 56.7549 15.3788C58.9558 15.1021 61.0636 14.8792 63.1713 14.6562C65.3328 14.5265 67.4208 14.3771 69.5823 14.2473L71.4906 12.7107C74.0864 14.1939 76.929 14.1679 80.0459 14.2942C83.1628 14.4204 86.407 14.6595 88.8952 15.9564L89.3035 14.7267C90.9597 15.013 90.5423 15.6888 90.8704 15.9343C94.6578 16.7916 98.5332 17.9087 102.212 19.7608C105.91 21.5394 109.411 24.053 112.24 27.0166C118.119 33.0029 121.472 41.0691 122.139 48.5733C122.016 49.328 122.176 50.7887 122.189 52.21C122.202 53.6313 122.068 55.0132 121.837 55.5815C121.981 57.9831 121.865 60.4727 121.289 62.9177C120.712 65.3626 119.935 67.6749 118.884 69.835L118.85 69.6683C118.653 70.4033 118.329 71.0253 118.058 71.7405C117.965 71.7943 117.818 71.7549 117.838 71.6815C117.754 72.2891 117.503 72.9308 117.159 73.6264C116.815 74.3219 116.398 74.9977 115.907 75.6539C114.905 77.0397 113.63 78.2732 112.56 79.3257L112.526 79.159L111.564 80.3978L110.528 81.6169C109.851 82.3807 109.1 83.1247 108.496 83.9082C107.088 85.3425 105.68 86.7768 104.218 88.1179C103.487 88.7885 102.775 89.3856 102.044 90.0561C101.259 90.6335 100.528 91.3041 99.7434 91.8815C98.2472 93.0559 96.604 94.191 95.0002 95.1791C88.4379 99.092 80.5989 101.009 72.9596 99.8283C72.1171 99.445 71.2155 99.2822 70.3336 99.0459C69.8926 98.9277 69.432 98.8831 68.991 98.7649C68.5501 98.6468 68.0894 98.6021 67.6288 98.5574C67.1681 98.5128 66.7075 98.4681 66.2665 98.35C65.8059 98.3053 65.3453 98.2606 64.8846 98.216C63.983 98.0532 62.9686 98.0176 62.067 97.8548C61.6063 97.8102 61.0722 97.7458 60.6312 97.6277C60.0971 97.5633 59.6561 97.4452 59.122 97.3808C58.1469 97.1983 57.118 96.9226 56.1626 96.6666C54.1981 96.0614 52.3319 95.0888 50.6719 93.9351C50.3005 92.9691 46.4554 91.1511 42.4489 89.0536C40.4554 87.9681 38.3885 86.8629 36.6694 85.9296C35.8663 85.3993 35.1169 84.9623 34.5684 84.6577C33.9857 84.1865 33.5841 83.9214 33.3637 83.8623Z" fill="url(#paint13_linear)"/>
<path d="M17.9688 59.8877C18.062 59.8339 18.1158 59.927 17.9688 59.8877V59.8877Z" fill="url(#paint14_linear)"/>
<path d="M29.9734 103.276C29.8999 103.256 29.9196 103.183 29.8461 103.163L29.7174 104.232L29.9734 103.276Z" fill="url(#paint15_linear)"/>
<path d="M15.3269 76.5088C15.5065 77.896 15.58 77.9157 15.6391 77.6952C15.63 77.1414 15.4883 76.7883 15.3269 76.5088Z" fill="url(#paint16_linear)"/>
<path d="M17.7164 49.6589C17.8201 48.9778 17.7414 49.2718 17.6429 49.6392C17.6127 50.34 17.568 50.8007 17.568 50.8007C17.593 50.4135 17.6179 50.0264 17.7164 49.6589Z" fill="url(#paint17_linear)"/>
<path d="M16.3264 52.2009L16.312 51.9607C16.287 52.3479 16.287 52.3479 16.3264 52.2009Z" fill="url(#paint18_linear)"/>
</g>
<g opacity="0.2">
<path d="M192.208 25.05C194.492 25.05 196.343 23.2172 196.343 20.9563C196.343 18.6953 194.492 16.8625 192.208 16.8625C189.925 16.8625 188.073 18.6953 188.073 20.9563C188.073 23.2172 189.925 25.05 192.208 25.05Z" fill="#3300FF"/>
<path d="M190.87 25.7875C190.895 25.7938 190.883 25.8 190.87 25.7875V25.7875Z" fill="#3300FF"/>
<path d="M188.402 17.3875C188.408 17.3875 188.408 17.3813 188.408 17.3813C188.395 17.3563 188.383 17.3375 188.376 17.325L188.402 17.3875Z" fill="#3300FF"/>
<path d="M189.854 16.4938C189.86 16.4938 189.86 16.4938 189.866 16.4938C189.86 16.4813 189.854 16.4688 189.854 16.4938Z" fill="#3300FF"/>
<path d="M187.196 20.9875C187.196 21 187.202 21.0125 187.208 21.0125C187.208 21.0062 187.202 21 187.196 20.9875Z" fill="#3300FF"/>
<path d="M193.85 25.5562C193.85 25.5625 193.856 25.5625 193.862 25.5688L193.85 25.5562Z" fill="#3300FF"/>
<path d="M193.837 25.6062C193.799 25.6 193.837 25.5688 193.85 25.5625C193.799 25.5437 193.761 25.5563 193.73 25.5813C193.736 25.6125 193.812 25.5875 193.837 25.6062Z" fill="#3300FF"/>
<path d="M196.987 21.5687L197 21.5875C197 21.575 196.994 21.5687 196.987 21.5687Z" fill="#3300FF"/>
<path d="M189.115 20.875C189.121 20.8812 189.121 20.8875 189.121 20.8875C189.121 20.8812 189.121 20.8812 189.115 20.875Z" fill="#3300FF"/>
<path d="M196.773 22.3688L196.83 22.3938C196.804 22.375 196.792 22.3688 196.773 22.3688Z" fill="#3300FF"/>
<path d="M188.376 17.3188L188.37 17.2938C188.37 17.3 188.37 17.3125 188.376 17.3188Z" fill="#3300FF"/>
<path d="M191.331 16.0375C191.337 16.0563 191.343 16.0687 191.35 16.0812H191.356L191.331 16.0375Z" fill="#3300FF"/>
<path d="M196.192 20.15C196.198 20.15 196.205 20.1438 196.217 20.1438L196.167 20.1312C196.173 20.1375 196.179 20.15 196.192 20.15Z" fill="#3300FF"/>
<path d="M193.37 16.3625C193.376 16.3563 193.383 16.35 193.383 16.3438C193.351 16.3187 193.269 16.2875 193.149 16.2688L193.13 16.3438C193.206 16.35 193.288 16.3563 193.37 16.3625Z" fill="#3300FF"/>
<path d="M194.159 18.6875C194.159 18.6188 194.153 18.55 194.146 18.4813C194.348 18.5938 194.456 18.7312 194.551 18.85C194.645 18.975 194.734 19.0938 194.891 19.225H194.854C194.854 19.2562 194.929 19.2313 195.005 19.3C195.043 19.3375 195.081 19.3875 195.1 19.4875C195.112 19.5375 195.112 19.5938 195.112 19.6625C195.112 19.7312 195.1 19.8062 195.074 19.8937L195.062 19.9C195.074 19.9188 195.1 19.9062 195.074 19.9625C195.093 19.9188 195.112 19.875 195.125 19.8312C195.188 19.875 195.27 19.9062 195.308 19.9875C195.295 20.0125 195.27 20.025 195.245 20.0312C195.27 20.0938 195.302 20.1625 195.327 20.2312L195.245 20.3125C195.308 20.3625 195.51 20.3 195.422 20.4938C195.554 20.4062 195.516 20.5687 195.586 20.5375C195.567 20.55 195.548 20.575 195.523 20.5938C195.535 20.6438 195.554 20.725 195.586 20.7937C195.611 20.8625 195.636 20.9313 195.674 20.9563C195.674 20.9563 195.693 20.9312 195.725 20.8875C195.756 20.8438 195.801 20.7812 195.838 20.7125C195.927 20.575 196.015 20.4125 196.085 20.3313C196.072 20.5125 196.11 20.375 196.154 20.3313L196.116 20.325C196.129 20.2125 196.223 20.1937 196.236 20.1375C196.23 20.1375 196.223 20.1438 196.211 20.1438L196.223 20.15C196.211 20.1562 196.198 20.1562 196.186 20.1562C196.167 20.1625 196.154 20.1625 196.148 20.1312L196.16 20.1375C196.135 20.0938 196.135 20.0125 196.129 19.9813L196.205 19.9625C196.167 19.95 196.148 19.9062 196.148 19.85C196.148 19.8187 196.148 19.7875 196.154 19.75C196.154 19.7125 196.16 19.675 196.167 19.6312C196.179 19.55 196.192 19.4688 196.198 19.3937C196.205 19.3187 196.205 19.2625 196.192 19.2375C196.23 19.0875 196.059 19.0063 196.028 18.8563C195.927 18.6375 196.066 18.6938 196.053 18.5563C196.009 18.4 195.996 18.6312 195.958 18.5812C195.958 18.5125 195.952 18.4375 195.946 18.3688C196.015 18.45 196.021 18.3812 196.034 18.3438C195.99 18.275 195.958 18.1625 195.914 18.0812C195.87 18 195.819 17.9375 195.744 17.9688C195.699 17.8625 195.687 17.8 195.674 17.75C195.662 17.7062 195.662 17.675 195.63 17.6375C195.63 17.6813 195.662 17.7438 195.636 17.7625C195.624 17.65 195.592 17.7437 195.611 17.7812C195.542 17.7563 195.466 17.5812 195.378 17.4312C195.289 17.2812 195.194 17.15 195.131 17.2062L195.15 17.1812C195.049 17.2625 195.018 17.3813 194.898 17.3813L194.879 17.3L194.771 17.2875C194.746 17.2188 194.784 17.2063 194.797 17.2C194.715 17.1813 194.639 17.1313 194.569 17.0688C194.494 17.0125 194.418 16.9438 194.336 16.8938C194.342 17.025 194.342 17.15 194.342 17.2812C194.298 17.2125 194.235 17.1125 194.172 17.0375C194.109 16.9625 194.039 16.925 194.008 16.9688C193.995 16.925 193.982 16.875 193.97 16.8313C193.869 16.675 193.806 16.675 193.761 16.7063C193.717 16.7375 193.692 16.7937 193.641 16.7437C193.604 16.6875 193.566 16.6313 193.528 16.5813C193.578 16.5938 193.629 16.6125 193.679 16.6313C193.616 16.575 193.566 16.5375 193.528 16.4938C193.484 16.4563 193.446 16.4125 193.395 16.3562C193.402 16.3625 193.408 16.3688 193.408 16.375H193.383C193.345 16.4313 193.256 16.45 193.149 16.425C193.073 16.4 192.997 16.4062 192.915 16.4C192.871 16.3938 192.827 16.3875 192.783 16.375C192.732 16.3562 192.682 16.3313 192.619 16.3L192.543 16.4187C192.48 16.3875 192.417 16.3625 192.354 16.3375V16.2375C192.448 16.2375 192.587 16.2438 192.732 16.25C192.808 16.2562 192.878 16.2625 192.953 16.2625C193.023 16.2687 193.092 16.2812 193.155 16.2875L193.168 16.2438C193.092 16.2313 193.016 16.225 192.941 16.225C192.865 16.225 192.802 16.225 192.751 16.2125C192.701 16.1688 192.587 16.0625 192.682 16L192.581 16.0875C192.455 16.0812 192.36 16.0812 192.284 16.0812C192.202 16.0812 192.139 16.0813 192.076 16.075C192.013 16.0688 191.943 16.0625 191.861 16.0562C191.817 16.05 191.773 16.0438 191.722 16.0375C191.672 16.0312 191.609 16.025 191.539 16.0188L191.59 16.0625C191.539 16.0812 191.489 16.1062 191.444 16.1125C191.4 16.1187 191.369 16.1125 191.343 16.075C191.021 16.1125 190.687 16.1437 190.441 16.1L190.434 16.225C190.371 16.2437 190.201 16.1188 190.232 16.2812C190.194 16.3125 190.157 16.35 190.119 16.3875C190.074 16.4 190.043 16.4313 190.011 16.4563C189.98 16.4813 189.942 16.5 189.879 16.4938C189.872 16.4938 189.86 16.4938 189.854 16.4875C189.854 16.4938 189.86 16.4938 189.86 16.4938C189.753 16.5188 189.765 16.5438 189.778 16.5688C189.784 16.5938 189.79 16.6125 189.67 16.6438C189.557 16.6125 189.67 16.8125 189.563 16.85C189.5 16.825 189.437 16.8 189.374 16.7688C189.14 16.8125 189.203 16.9688 188.97 17.1625C188.818 17.2125 188.66 17.1562 188.654 16.9937C188.654 17.2 188.673 17.1125 188.591 17.2938C188.528 17.2688 188.528 17.2437 188.521 17.175C188.345 17.2375 188.49 17.2875 188.402 17.375C188.465 17.4813 188.578 17.6437 188.559 17.675L188.616 17.6688C188.597 17.7313 188.572 17.8 188.534 17.8563C188.496 17.9125 188.446 17.9562 188.383 17.9937L188.338 17.95C188.313 17.9938 188.288 18.0438 188.269 18.0875L188.199 18.05C188.162 18.1125 188.124 18.175 188.092 18.2438L188.124 18.2313C188.105 18.2812 188.035 18.4313 187.953 18.4938L187.915 18.4688C187.789 18.55 187.739 18.6688 187.701 18.8C187.669 18.9312 187.657 19.075 187.606 19.225L187.537 19.1562C187.417 19.225 187.65 19.2313 187.568 19.3375L187.48 19.3125C187.581 19.4688 187.404 19.4437 187.328 19.5062L187.473 19.5125L187.404 19.65C187.36 19.725 187.309 19.7375 187.265 19.725C187.221 19.7125 187.17 19.6813 187.139 19.6562C187.164 19.7 187.189 19.75 187.221 19.7938L187.095 19.7875C187.221 19.9 187.051 19.8688 187.101 20.0312C187.051 20.0375 187.032 19.9937 187 20.0375L187.063 20.175L187.133 20.3063C187.114 20.2562 187.095 20.2 187.076 20.15L187.253 20.1937C187.309 20.275 187.303 20.325 187.278 20.3688C187.259 20.4125 187.221 20.45 187.246 20.5C187.227 20.475 187.215 20.45 187.196 20.425C187.227 20.6 187.145 20.6062 187.101 20.7C187.139 20.6687 187.189 20.625 187.208 20.7C187.215 20.75 187.145 20.725 187.12 20.775C187.24 20.7938 187.303 20.9125 187.246 21.025C187.227 21.025 187.215 21.0187 187.202 21.0125C187.221 21.0437 187.253 21.0562 187.227 21.1062L187.088 21.0813C187.133 21.1125 187.177 21.1438 187.221 21.175C187.183 21.2438 187.29 21.325 187.202 21.325L187.17 21.2875C187.17 21.45 187.177 21.6125 187.196 21.7812L187.088 21.8063C187.164 21.8187 187.164 21.8875 187.164 21.95C187.164 22.0125 187.177 22.0625 187.265 22.0312C187.227 22.0875 187.265 22.175 187.284 22.2438C187.309 22.3125 187.316 22.3688 187.208 22.3688C187.221 22.4062 187.227 22.4437 187.246 22.4812C187.259 22.5187 187.278 22.55 187.297 22.5813C187.335 22.6438 187.372 22.7 187.417 22.7562C187.461 22.8125 187.499 22.8688 187.53 22.9437C187.568 23.0125 187.593 23.0938 187.612 23.1937C187.562 23.2937 187.6 23.4313 187.669 23.5625C187.701 23.6312 187.745 23.7 187.783 23.7625C187.827 23.825 187.865 23.8875 187.903 23.9437C188.08 24.1313 188.244 24.2687 188.408 24.4C188.578 24.5312 188.742 24.6562 188.957 24.7937C188.976 24.8875 189.027 24.9625 189.096 25.025C189.165 25.0875 189.254 25.1312 189.342 25.1687C189.525 25.25 189.715 25.3062 189.828 25.4375L189.955 25.3938C189.986 25.4563 190.037 25.4937 190.093 25.5312C190.15 25.5625 190.22 25.5938 190.289 25.6125C190.434 25.6625 190.586 25.7 190.712 25.8188C190.801 25.8 190.838 25.7937 190.857 25.8C190.845 25.7937 190.832 25.7688 190.838 25.7063C190.908 25.775 191.091 25.7563 191.053 25.875L191.028 25.8813C191.009 25.9375 191.078 25.9438 191.16 25.9438C191.242 25.9438 191.343 25.9375 191.381 26L191.35 25.8562C191.4 25.875 191.457 25.8875 191.508 25.9L191.457 25.9187C191.836 25.8187 192.076 25.8562 192.328 25.8875C192.581 25.9125 192.84 25.9313 193.143 25.7375C193.111 25.8188 193.143 25.7937 193.181 25.7688C193.218 25.7438 193.275 25.7125 193.294 25.7875C193.402 25.8688 193.477 25.8375 193.534 25.775C193.597 25.7125 193.641 25.625 193.698 25.575C193.698 25.5687 193.692 25.5562 193.698 25.5437C193.774 25.525 193.85 25.5062 193.926 25.4812C193.894 25.6 193.919 25.5437 193.944 25.4875C193.97 25.4313 193.995 25.3687 193.963 25.4688C194.279 25.425 194.614 25.2625 194.917 25.05C195.226 24.8375 195.504 24.575 195.775 24.3375L195.718 24.325C195.75 24.2937 195.782 24.2563 195.813 24.2188C195.845 24.1812 195.87 24.1438 195.902 24.1C195.965 24.025 196.021 23.9563 196.097 23.9313C196.173 23.9 196.192 23.8187 196.192 23.7438C196.192 23.6688 196.179 23.5938 196.186 23.5687C196.186 23.4812 196.242 23.4375 196.293 23.4187C196.343 23.4 196.388 23.4 196.369 23.4313C196.4 23.3563 196.394 23.2625 196.394 23.1687C196.394 23.075 196.419 22.9875 196.495 22.9062C196.539 22.9062 196.571 22.8688 196.59 22.8125C196.609 22.7562 196.615 22.6813 196.621 22.6125C196.634 22.4688 196.634 22.3375 196.729 22.3625L196.716 22.3562C196.766 22.3 196.798 22.2375 196.817 22.1687C196.836 22.1 196.836 22.0312 196.842 21.9625C196.848 21.8938 196.842 21.825 196.855 21.75C196.867 21.6813 196.886 21.6125 196.924 21.5375C196.924 21.5375 196.937 21.5438 196.949 21.5563C196.785 21.3313 196.596 21.125 196.4 20.9437C196.186 20.9938 195.965 21.0375 195.75 21.075C195.573 21.2 195.384 21.3063 195.194 21.3938C195.188 21.5438 195.176 21.7 195.15 21.8562C195.119 22.0062 195.081 22.1625 195.03 22.3125C194.86 22.5062 194.664 22.675 194.462 22.8187C194.109 23.275 193.616 23.6375 193.061 23.825C193.035 23.8812 193.004 23.9375 192.979 24C192.77 23.9187 192.581 23.9625 192.379 23.9938C192.177 24.025 191.956 24.0437 191.779 23.9313L191.754 24.0562C191.64 24.05 191.665 23.9688 191.64 23.9437C191.394 23.9062 191.148 23.85 190.908 23.7625C190.788 23.7188 190.674 23.6688 190.561 23.6125C190.447 23.55 190.34 23.4875 190.232 23.4125C189.816 23.125 189.494 22.7063 189.374 22.2688C189.393 22.2125 189.361 22.1313 189.342 22.05C189.33 22.0125 189.323 21.9688 189.317 21.9313C189.317 21.8938 189.317 21.8625 189.336 21.8438C189.222 21.7312 189.146 21.5938 189.109 21.45C189.071 21.3062 189.058 21.15 189.064 21L189.077 21.0125C189.064 20.9688 189.058 20.9187 189.052 20.875C189.064 20.8688 189.077 20.8688 189.09 20.875C189.064 20.8375 189.052 20.7875 189.052 20.7438C189.052 20.6937 189.058 20.6438 189.077 20.5938C189.109 20.4938 189.165 20.3875 189.21 20.3063L189.222 20.3187C189.254 20.1875 189.292 20.0563 189.33 19.9313C189.374 19.8063 189.418 19.6813 189.475 19.5625C189.5 19.5 189.532 19.4437 189.563 19.3812C189.595 19.325 189.626 19.2625 189.664 19.2062C189.734 19.0875 189.809 18.9813 189.898 18.875C190.068 18.6688 190.27 18.4813 190.504 18.3375C190.737 18.1938 191.003 18.0938 191.274 18.05C191.413 18.0625 191.539 18.05 191.672 18.0312C191.735 18.0187 191.804 18.0125 191.874 18C191.943 17.9937 192.013 17.975 192.082 17.9688C192.221 17.95 192.366 17.9437 192.511 17.9562C192.657 17.975 192.795 18.0125 192.928 18.0875C192.966 18.1625 193.256 18.2438 193.534 18.375C193.837 18.5062 194.102 18.675 194.159 18.6875Z" fill="#3300FF"/>
<path d="M195.251 20.0375C195.22 20.05 195.194 20.0437 195.251 20.0375V20.0375Z" fill="#3300FF"/>
<path d="M194.33 16.8875L194.336 16.8938L194.33 16.8062V16.8875Z" fill="#3300FF"/>
<path d="M196.104 18.4062C196.059 18.3063 196.04 18.3125 196.034 18.3375C196.053 18.3688 196.078 18.3937 196.104 18.4062Z" fill="#3300FF"/>
<path d="M195.466 20.6C195.466 20.6375 195.497 20.6188 195.529 20.5938C195.516 20.5563 195.51 20.525 195.51 20.525C195.504 20.55 195.479 20.575 195.466 20.6Z" fill="#3300FF"/>
<path d="M196.16 20.3313L196.205 20.3375C196.186 20.3125 196.173 20.3188 196.16 20.3313Z" fill="#3300FF"/>
</g>
<g opacity="0.2">
<path d="M180.125 39.43C181.495 39.43 182.606 38.3303 182.606 36.9738C182.606 35.6172 181.495 34.5175 180.125 34.5175C178.755 34.5175 177.644 35.6172 177.644 36.9738C177.644 38.3303 178.755 39.43 180.125 39.43Z" fill="#DA56FB"/>
<path d="M179.322 39.8725C179.337 39.8763 179.33 39.88 179.322 39.8725V39.8725Z" fill="#DA56FB"/>
<path d="M177.841 34.8325C177.845 34.8325 177.845 34.8288 177.845 34.8288C177.837 34.8138 177.83 34.8025 177.826 34.795L177.841 34.8325Z" fill="#DA56FB"/>
<path d="M178.712 34.2963C178.716 34.2963 178.716 34.2963 178.72 34.2963C178.716 34.2888 178.712 34.2812 178.712 34.2963Z" fill="#DA56FB"/>
<path d="M177.117 36.9925C177.117 37 177.121 37.0075 177.125 37.0075C177.125 37.0038 177.121 37 177.117 36.9925Z" fill="#DA56FB"/>
<path d="M181.11 39.7337C181.11 39.7375 181.114 39.7375 181.117 39.7413L181.11 39.7337Z" fill="#DA56FB"/>
<path d="M181.102 39.7638C181.08 39.76 181.102 39.7413 181.11 39.7375C181.08 39.7263 181.057 39.7338 181.038 39.7488C181.042 39.7675 181.087 39.7525 181.102 39.7638Z" fill="#DA56FB"/>
<path d="M182.992 37.3413L183 37.3525C183 37.345 182.996 37.3413 182.992 37.3413Z" fill="#DA56FB"/>
<path d="M178.269 36.925C178.273 36.9288 178.273 36.9325 178.273 36.9325C178.273 36.9288 178.273 36.9288 178.269 36.925Z" fill="#DA56FB"/>
<path d="M182.864 37.8213L182.898 37.8363C182.883 37.825 182.875 37.8213 182.864 37.8213Z" fill="#DA56FB"/>
<path d="M177.826 34.7913L177.822 34.7763C177.822 34.78 177.822 34.7875 177.826 34.7913Z" fill="#DA56FB"/>
<path d="M179.598 34.0225C179.602 34.0338 179.606 34.0412 179.61 34.0488H179.614L179.598 34.0225Z" fill="#DA56FB"/>
<path d="M182.515 36.49C182.519 36.49 182.523 36.4863 182.53 36.4863L182.5 36.4787C182.504 36.4825 182.508 36.49 182.515 36.49Z" fill="#DA56FB"/>
<path d="M180.822 34.2175C180.826 34.2138 180.83 34.21 180.83 34.2063C180.811 34.1913 180.761 34.1725 180.689 34.1613L180.678 34.2063C180.723 34.21 180.773 34.2138 180.822 34.2175Z" fill="#DA56FB"/>
<path d="M181.295 35.6125C181.295 35.5713 181.292 35.53 181.288 35.4888C181.409 35.5563 181.473 35.6387 181.53 35.71C181.587 35.785 181.64 35.8563 181.735 35.935H181.712C181.712 35.9538 181.758 35.9388 181.803 35.98C181.826 36.0025 181.848 36.0325 181.86 36.0925C181.867 36.1225 181.867 36.1562 181.867 36.1975C181.867 36.2387 181.86 36.2838 181.845 36.3363L181.837 36.34C181.845 36.3513 181.86 36.3438 181.845 36.3775C181.856 36.3513 181.867 36.325 181.875 36.2988C181.913 36.325 181.962 36.3438 181.985 36.3925C181.977 36.4075 181.962 36.415 181.947 36.4188C181.962 36.4563 181.981 36.4975 181.996 36.5387L181.947 36.5875C181.985 36.6175 182.106 36.58 182.053 36.6963C182.133 36.6438 182.11 36.7413 182.152 36.7225C182.14 36.73 182.129 36.745 182.114 36.7563C182.121 36.7863 182.133 36.835 182.152 36.8763C182.167 36.9175 182.182 36.9588 182.205 36.9738C182.205 36.9738 182.216 36.9588 182.235 36.9325C182.254 36.9062 182.28 36.8688 182.303 36.8275C182.356 36.745 182.409 36.6475 182.451 36.5988C182.443 36.7075 182.466 36.625 182.492 36.5988L182.47 36.595C182.477 36.5275 182.534 36.5162 182.542 36.4825C182.538 36.4825 182.534 36.4863 182.527 36.4863L182.534 36.49C182.527 36.4938 182.519 36.4938 182.511 36.4938C182.5 36.4975 182.492 36.4975 182.489 36.4787L182.496 36.4825C182.481 36.4562 182.481 36.4075 182.477 36.3888L182.523 36.3775C182.5 36.37 182.489 36.3438 182.489 36.31C182.489 36.2912 182.489 36.2725 182.492 36.25C182.492 36.2275 182.496 36.205 182.5 36.1788C182.508 36.13 182.515 36.0812 182.519 36.0363C182.523 35.9913 182.523 35.9575 182.515 35.9425C182.538 35.8525 182.436 35.8038 182.417 35.7138C182.356 35.5825 182.439 35.6163 182.432 35.5338C182.405 35.44 182.398 35.5788 182.375 35.5488C182.375 35.5075 182.371 35.4625 182.367 35.4213C182.409 35.47 182.413 35.4288 182.42 35.4062C182.394 35.365 182.375 35.2975 182.348 35.2487C182.322 35.2 182.292 35.1625 182.246 35.1813C182.22 35.1175 182.212 35.08 182.205 35.05C182.197 35.0238 182.197 35.005 182.178 34.9825C182.178 35.0088 182.197 35.0463 182.182 35.0575C182.174 34.99 182.155 35.0462 182.167 35.0688C182.125 35.0538 182.08 34.9488 182.027 34.8588C181.973 34.7688 181.917 34.69 181.879 34.7237L181.89 34.7088C181.83 34.7575 181.811 34.8288 181.739 34.8288L181.727 34.78L181.663 34.7725C181.648 34.7313 181.67 34.7238 181.678 34.72C181.629 34.7088 181.583 34.6788 181.542 34.6413C181.496 34.6075 181.451 34.5663 181.402 34.5363C181.405 34.615 181.405 34.69 181.405 34.7688C181.379 34.7275 181.341 34.6675 181.303 34.6225C181.265 34.5775 181.223 34.555 181.205 34.5813C181.197 34.555 181.189 34.525 181.182 34.4988C181.121 34.405 181.083 34.405 181.057 34.4238C181.03 34.4425 181.015 34.4762 180.985 34.4462C180.962 34.4125 180.939 34.3788 180.917 34.3488C180.947 34.3563 180.977 34.3675 181.008 34.3788C180.97 34.345 180.939 34.3225 180.917 34.2963C180.89 34.2738 180.867 34.2475 180.837 34.2138C180.841 34.2175 180.845 34.2213 180.845 34.225H180.83C180.807 34.2588 180.754 34.27 180.689 34.255C180.644 34.24 180.598 34.2438 180.549 34.24C180.523 34.2363 180.496 34.2325 180.47 34.225C180.439 34.2138 180.409 34.1988 180.371 34.18L180.326 34.2512C180.288 34.2325 180.25 34.2175 180.212 34.2025V34.1425C180.269 34.1425 180.352 34.1463 180.439 34.15C180.485 34.1538 180.527 34.1575 180.572 34.1575C180.614 34.1612 180.655 34.1688 180.693 34.1725L180.701 34.1463C180.655 34.1388 180.61 34.135 180.564 34.135C180.519 34.135 180.481 34.135 180.451 34.1275C180.42 34.1013 180.352 34.0375 180.409 34L180.348 34.0525C180.273 34.0488 180.216 34.0488 180.17 34.0488C180.121 34.0488 180.083 34.0488 180.045 34.045C180.008 34.0413 179.966 34.0375 179.917 34.0338C179.89 34.03 179.864 34.0263 179.833 34.0225C179.803 34.0188 179.765 34.015 179.723 34.0113L179.754 34.0375C179.723 34.0488 179.693 34.0637 179.667 34.0675C179.64 34.0712 179.621 34.0675 179.606 34.045C179.413 34.0675 179.212 34.0863 179.064 34.06L179.061 34.135C179.023 34.1463 178.92 34.0713 178.939 34.1688C178.917 34.1875 178.894 34.21 178.871 34.2325C178.845 34.24 178.826 34.2588 178.807 34.2738C178.788 34.2888 178.765 34.3 178.727 34.2963C178.723 34.2963 178.716 34.2963 178.712 34.2925C178.712 34.2963 178.716 34.2963 178.716 34.2963C178.652 34.3113 178.659 34.3263 178.667 34.3413C178.67 34.3563 178.674 34.3675 178.602 34.3863C178.534 34.3675 178.602 34.4875 178.538 34.51C178.5 34.495 178.462 34.48 178.424 34.4613C178.284 34.4875 178.322 34.5813 178.182 34.6975C178.091 34.7275 177.996 34.6938 177.992 34.5962C177.992 34.72 178.004 34.6675 177.955 34.7763C177.917 34.7613 177.917 34.7462 177.913 34.705C177.807 34.7425 177.894 34.7725 177.841 34.825C177.879 34.8888 177.947 34.9862 177.936 35.005L177.97 35.0013C177.958 35.0388 177.943 35.08 177.92 35.1138C177.898 35.1475 177.867 35.1738 177.83 35.1963L177.803 35.17C177.788 35.1963 177.773 35.2263 177.761 35.2525L177.72 35.23C177.697 35.2675 177.674 35.305 177.655 35.3463L177.674 35.3388C177.663 35.3688 177.621 35.4588 177.572 35.4963L177.549 35.4813C177.473 35.53 177.443 35.6013 177.42 35.68C177.402 35.7588 177.394 35.845 177.364 35.935L177.322 35.8938C177.25 35.935 177.39 35.9388 177.341 36.0025L177.288 35.9875C177.348 36.0813 177.242 36.0663 177.197 36.1037L177.284 36.1075L177.242 36.19C177.216 36.235 177.186 36.2425 177.159 36.235C177.133 36.2275 177.102 36.2088 177.083 36.1938C177.098 36.22 177.114 36.25 177.133 36.2763L177.057 36.2725C177.133 36.34 177.03 36.3213 177.061 36.4188C177.03 36.4225 177.019 36.3963 177 36.4225L177.038 36.505L177.08 36.5838C177.068 36.5538 177.057 36.52 177.045 36.49L177.152 36.5163C177.186 36.565 177.182 36.595 177.167 36.6213C177.155 36.6475 177.133 36.67 177.148 36.7C177.136 36.685 177.129 36.67 177.117 36.655C177.136 36.76 177.087 36.7638 177.061 36.82C177.083 36.8012 177.114 36.775 177.125 36.82C177.129 36.85 177.087 36.835 177.072 36.865C177.144 36.8763 177.182 36.9475 177.148 37.015C177.136 37.015 177.129 37.0113 177.121 37.0075C177.133 37.0263 177.152 37.0338 177.136 37.0638L177.053 37.0488C177.08 37.0675 177.106 37.0863 177.133 37.105C177.11 37.1463 177.174 37.195 177.121 37.195L177.102 37.1725C177.102 37.27 177.106 37.3675 177.117 37.4688L177.053 37.4838C177.098 37.4913 177.098 37.5325 177.098 37.57C177.098 37.6075 177.106 37.6375 177.159 37.6188C177.136 37.6525 177.159 37.705 177.17 37.7463C177.186 37.7875 177.189 37.8213 177.125 37.8213C177.133 37.8438 177.136 37.8663 177.148 37.8888C177.155 37.9113 177.167 37.93 177.178 37.9488C177.201 37.9863 177.223 38.02 177.25 38.0538C177.277 38.0875 177.299 38.1213 177.318 38.1663C177.341 38.2075 177.356 38.2562 177.367 38.3163C177.337 38.3763 177.36 38.4588 177.402 38.5375C177.42 38.5788 177.447 38.62 177.47 38.6575C177.496 38.695 177.519 38.7325 177.542 38.7663C177.648 38.8788 177.746 38.9612 177.845 39.04C177.947 39.1188 178.045 39.1937 178.174 39.2762C178.186 39.3325 178.216 39.3775 178.258 39.415C178.299 39.4525 178.352 39.4788 178.405 39.5013C178.515 39.55 178.629 39.5838 178.697 39.6625L178.773 39.6363C178.792 39.6738 178.822 39.6963 178.856 39.7188C178.89 39.7375 178.932 39.7563 178.973 39.7675C179.061 39.7975 179.152 39.82 179.227 39.8913C179.28 39.88 179.303 39.8763 179.314 39.88C179.307 39.8763 179.299 39.8613 179.303 39.8238C179.345 39.865 179.455 39.8538 179.432 39.925L179.417 39.9288C179.405 39.9625 179.447 39.9663 179.496 39.9663C179.545 39.9663 179.606 39.9625 179.629 40L179.61 39.9138C179.64 39.925 179.674 39.9325 179.705 39.94L179.674 39.9513C179.902 39.8913 180.045 39.9138 180.197 39.9325C180.348 39.9475 180.504 39.9588 180.686 39.8425C180.667 39.8913 180.686 39.8763 180.708 39.8613C180.731 39.8463 180.765 39.8275 180.777 39.8725C180.841 39.9213 180.886 39.9025 180.92 39.865C180.958 39.8275 180.985 39.775 181.019 39.745C181.019 39.7413 181.015 39.7338 181.019 39.7263C181.064 39.715 181.11 39.7038 181.155 39.6888C181.136 39.76 181.152 39.7263 181.167 39.6925C181.182 39.6588 181.197 39.6213 181.178 39.6813C181.367 39.655 181.568 39.5575 181.75 39.43C181.936 39.3025 182.102 39.145 182.265 39.0025L182.231 38.995C182.25 38.9763 182.269 38.9538 182.288 38.9313C182.307 38.9088 182.322 38.8863 182.341 38.86C182.379 38.815 182.413 38.7738 182.458 38.7588C182.504 38.74 182.515 38.6913 182.515 38.6463C182.515 38.6013 182.508 38.5563 182.511 38.5413C182.511 38.4887 182.545 38.4625 182.576 38.4513C182.606 38.44 182.633 38.44 182.621 38.4588C182.64 38.4138 182.636 38.3575 182.636 38.3012C182.636 38.245 182.652 38.1925 182.697 38.1438C182.723 38.1438 182.742 38.1213 182.754 38.0875C182.765 38.0538 182.769 38.0088 182.773 37.9675C182.78 37.8813 182.78 37.8025 182.837 37.8175L182.83 37.8138C182.86 37.78 182.879 37.7425 182.89 37.7013C182.902 37.66 182.902 37.6188 182.905 37.5775C182.909 37.5363 182.905 37.495 182.913 37.45C182.92 37.4088 182.932 37.3675 182.955 37.3225C182.955 37.3225 182.962 37.3263 182.97 37.3338C182.871 37.1988 182.758 37.075 182.64 36.9662C182.511 36.9963 182.379 37.0225 182.25 37.045C182.144 37.12 182.03 37.1838 181.917 37.2363C181.913 37.3263 181.905 37.42 181.89 37.5138C181.871 37.6037 181.848 37.6975 181.818 37.7875C181.716 37.9038 181.598 38.005 181.477 38.0912C181.265 38.365 180.97 38.5825 180.636 38.695C180.621 38.7288 180.602 38.7625 180.587 38.8C180.462 38.7513 180.348 38.7775 180.227 38.7963C180.106 38.815 179.973 38.8263 179.867 38.7588L179.852 38.8337C179.784 38.83 179.799 38.7812 179.784 38.7663C179.636 38.7438 179.489 38.71 179.345 38.6575C179.273 38.6312 179.205 38.6013 179.136 38.5675C179.068 38.53 179.004 38.4925 178.939 38.4475C178.689 38.275 178.496 38.0238 178.424 37.7613C178.436 37.7275 178.417 37.6788 178.405 37.63C178.398 37.6075 178.394 37.5813 178.39 37.5588C178.39 37.5363 178.39 37.5175 178.402 37.5063C178.333 37.4388 178.288 37.3563 178.265 37.27C178.242 37.1837 178.235 37.09 178.239 37L178.246 37.0075C178.239 36.9813 178.235 36.9513 178.231 36.925C178.239 36.9213 178.246 36.9213 178.254 36.925C178.239 36.9025 178.231 36.8725 178.231 36.8463C178.231 36.8163 178.235 36.7863 178.246 36.7563C178.265 36.6963 178.299 36.6325 178.326 36.5838L178.333 36.5912C178.352 36.5125 178.375 36.4338 178.398 36.3588C178.424 36.2838 178.451 36.2088 178.485 36.1375C178.5 36.1 178.519 36.0663 178.538 36.0287C178.557 35.995 178.576 35.9575 178.598 35.9238C178.64 35.8525 178.686 35.7888 178.739 35.725C178.841 35.6013 178.962 35.4888 179.102 35.4025C179.242 35.3163 179.402 35.2563 179.564 35.23C179.648 35.2375 179.723 35.23 179.803 35.2188C179.841 35.2113 179.883 35.2075 179.924 35.2C179.966 35.1963 180.008 35.185 180.049 35.1813C180.133 35.17 180.22 35.1662 180.307 35.1738C180.394 35.185 180.477 35.2075 180.557 35.2525C180.58 35.2975 180.754 35.3463 180.92 35.425C181.102 35.5038 181.261 35.605 181.295 35.6125Z" fill="#DA56FB"/>
<path d="M181.951 36.4225C181.932 36.43 181.917 36.4262 181.951 36.4225V36.4225Z" fill="#DA56FB"/>
<path d="M181.398 34.5325L181.402 34.5363L181.398 34.4838V34.5325Z" fill="#DA56FB"/>
<path d="M182.462 35.4438C182.436 35.3838 182.424 35.3875 182.42 35.4025C182.432 35.4213 182.447 35.4363 182.462 35.4438Z" fill="#DA56FB"/>
<path d="M182.08 36.76C182.08 36.7825 182.098 36.7713 182.117 36.7563C182.11 36.7338 182.106 36.715 182.106 36.715C182.102 36.73 182.087 36.745 182.08 36.76Z" fill="#DA56FB"/>
<path d="M182.496 36.5988L182.523 36.6025C182.511 36.5875 182.504 36.5913 182.496 36.5988Z" fill="#DA56FB"/>
</g>
<defs>
<linearGradient id="paint0_linear" x1="57.7574" y1="123.639" x2="151.843" y2="70.9659" gradientUnits="userSpaceOnUse">
<stop stop-color="#FC8282" stop-opacity="0"/>
<stop offset="1" stop-color="#3300FF"/>
</linearGradient>
<linearGradient id="paint1_linear" x1="57.7574" y1="123.639" x2="151.843" y2="70.9659" gradientUnits="userSpaceOnUse">
<stop stop-color="#FC8282" stop-opacity="0"/>
<stop offset="1" stop-color="#3300FF"/>
</linearGradient>
<linearGradient id="paint2_linear" x1="57.7574" y1="123.639" x2="151.843" y2="70.9659" gradientUnits="userSpaceOnUse">
<stop stop-color="#FC8282" stop-opacity="0"/>
<stop offset="1" stop-color="#3300FF"/>
</linearGradient>
<linearGradient id="paint3_linear" x1="57.7574" y1="123.639" x2="151.843" y2="70.9659" gradientUnits="userSpaceOnUse">
<stop stop-color="#FC8282" stop-opacity="0"/>
<stop offset="1" stop-color="#3300FF"/>
</linearGradient>
<linearGradient id="paint4_linear" x1="57.7574" y1="123.639" x2="151.843" y2="70.9659" gradientUnits="userSpaceOnUse">
<stop stop-color="#FC8282" stop-opacity="0"/>
<stop offset="1" stop-color="#3300FF"/>
</linearGradient>
<linearGradient id="paint5_linear" x1="57.7574" y1="123.639" x2="151.843" y2="70.9659" gradientUnits="userSpaceOnUse">
<stop stop-color="#FC8282" stop-opacity="0"/>
<stop offset="1" stop-color="#3300FF"/>
</linearGradient>
<linearGradient id="paint6_linear" x1="57.7574" y1="123.639" x2="151.843" y2="70.9659" gradientUnits="userSpaceOnUse">
<stop stop-color="#FC8282" stop-opacity="0"/>
<stop offset="1" stop-color="#3300FF"/>
</linearGradient>
<linearGradient id="paint7_linear" x1="57.7574" y1="123.639" x2="151.843" y2="70.9659" gradientUnits="userSpaceOnUse">
<stop stop-color="#FC8282" stop-opacity="0"/>
<stop offset="1" stop-color="#3300FF"/>
</linearGradient>
<linearGradient id="paint8_linear" x1="57.7574" y1="123.639" x2="151.843" y2="70.9659" gradientUnits="userSpaceOnUse">
<stop stop-color="#FC8282" stop-opacity="0"/>
<stop offset="1" stop-color="#3300FF"/>
</linearGradient>
<linearGradient id="paint9_linear" x1="57.7574" y1="123.639" x2="151.843" y2="70.9659" gradientUnits="userSpaceOnUse">
<stop stop-color="#FC8282" stop-opacity="0"/>
<stop offset="1" stop-color="#3300FF"/>
</linearGradient>
<linearGradient id="paint10_linear" x1="57.7574" y1="123.639" x2="151.843" y2="70.9659" gradientUnits="userSpaceOnUse">
<stop stop-color="#FC8282" stop-opacity="0"/>
<stop offset="1" stop-color="#3300FF"/>
</linearGradient>
<linearGradient id="paint11_linear" x1="57.7574" y1="123.639" x2="151.843" y2="70.9659" gradientUnits="userSpaceOnUse">
<stop stop-color="#FC8282" stop-opacity="0"/>
<stop offset="1" stop-color="#3300FF"/>
</linearGradient>
<linearGradient id="paint12_linear" x1="57.7574" y1="123.639" x2="151.843" y2="70.9659" gradientUnits="userSpaceOnUse">
<stop stop-color="#FC8282" stop-opacity="0"/>
<stop offset="1" stop-color="#3300FF"/>
</linearGradient>
<linearGradient id="paint13_linear" x1="57.7574" y1="123.639" x2="151.843" y2="70.9659" gradientUnits="userSpaceOnUse">
<stop stop-color="#FC8282" stop-opacity="0"/>
<stop offset="1" stop-color="#3300FF"/>
</linearGradient>
<linearGradient id="paint14_linear" x1="57.7574" y1="123.639" x2="151.843" y2="70.9659" gradientUnits="userSpaceOnUse">
<stop stop-color="#FC8282" stop-opacity="0"/>
<stop offset="1" stop-color="#3300FF"/>
</linearGradient>
<linearGradient id="paint15_linear" x1="57.7574" y1="123.639" x2="151.843" y2="70.9659" gradientUnits="userSpaceOnUse">
<stop stop-color="#FC8282" stop-opacity="0"/>
<stop offset="1" stop-color="#3300FF"/>
</linearGradient>
<linearGradient id="paint16_linear" x1="57.7574" y1="123.639" x2="151.843" y2="70.9659" gradientUnits="userSpaceOnUse">
<stop stop-color="#FC8282" stop-opacity="0"/>
<stop offset="1" stop-color="#3300FF"/>
</linearGradient>
<linearGradient id="paint17_linear" x1="57.7574" y1="123.639" x2="151.843" y2="70.9659" gradientUnits="userSpaceOnUse">
<stop stop-color="#FC8282" stop-opacity="0"/>
<stop offset="1" stop-color="#3300FF"/>
</linearGradient>
<linearGradient id="paint18_linear" x1="57.7574" y1="123.639" x2="151.843" y2="70.9659" gradientUnits="userSpaceOnUse">
<stop stop-color="#FC8282" stop-opacity="0"/>
<stop offset="1" stop-color="#3300FF"/>
</linearGradient>
</defs>
</svg>
