<svg width="98" height="298" viewBox="0 0 98 298" fill="none" xmlns="http://www.w3.org/2000/svg">
<g opacity="0.4">
<path d="M26.3678 19.9181C25.6707 19.6055 25.0362 19.0927 24.5872 18.4297C24.4614 18.2477 24.3495 18.0566 24.2571 17.8575C24.159 17.6574 24.0805 17.4493 24.0147 17.2378C23.9442 17.0195 23.898 16.8 23.8645 16.5771C23.831 16.3542 23.8229 16.1244 23.8194 15.9014C23.8264 14.9957 24.1201 14.0686 24.6607 13.2882C25.1956 12.5067 25.9544 11.8674 26.838 11.4451C26.9463 11.3838 27.1089 11.292 27.2819 11.208C27.4549 11.124 27.6373 11.0535 27.7608 11.0068C27.8504 10.9807 27.945 10.9619 28.0415 10.9428C28.0756 10.936 28.1099 10.9292 28.1442 10.922C28.2748 10.9001 28.4111 10.8793 28.5463 10.8642C28.8225 10.835 29.1058 10.8306 29.3903 10.8498C29.676 10.8634 29.9676 10.9073 30.2605 10.975C30.5533 11.0426 30.8417 11.1328 31.1244 11.2511C31.691 11.4822 32.213 11.8159 32.6567 12.2108C32.8809 12.4116 33.0854 12.6204 33.2635 12.8416C33.4415 13.0629 33.6057 13.2932 33.7445 13.5303C33.8775 13.7664 33.9666 14.0116 34.0001 14.2346C34.0382 14.4642 34.0324 14.6738 34.0101 14.8451C33.9869 15.0202 33.9421 15.1568 33.9114 15.2504L33.9104 15.2532C33.8739 15.3457 33.8452 15.3988 33.8452 15.3988C33.8193 15.5284 33.7564 15.6627 33.6827 15.7306C33.6091 15.7984 33.5235 15.8055 33.4421 15.7022C33.4103 15.5908 33.3679 15.4422 33.3093 15.2848C33.2835 15.2037 33.2518 15.1216 33.2133 15.044C33.1817 14.9619 33.1431 14.8843 33.1034 14.8124C32.947 14.5133 32.7609 14.3023 32.6675 14.3488C32.641 14.3613 32.6551 14.4108 32.6878 14.4873C32.7217 14.5581 32.7627 14.6537 32.8036 14.7493C32.6998 14.788 32.606 14.9866 32.5248 15.1818C32.514 15.206 32.5046 15.2306 32.4952 15.2551C32.4857 15.2796 32.4763 15.3042 32.4655 15.3285C32.4596 15.3466 32.4531 15.3639 32.4468 15.3808C32.436 15.4098 32.4256 15.4375 32.4199 15.466L32.4175 15.475C32.3958 15.5546 32.3771 15.6232 32.3862 15.6644C32.3782 15.6892 32.3675 15.7281 32.354 15.7766C32.3405 15.8253 32.3243 15.8838 32.3055 15.9475C32.2755 16.0496 32.2381 16.1691 32.1938 16.2881C32.1971 16.5326 32.1748 16.7812 32.1248 17.0307C31.7434 18.9371 29.8898 20.1981 27.9371 19.914L27.933 19.9346C28.4467 20.0093 28.9287 19.9725 29.3895 19.8616C29.6393 19.7985 29.8815 19.7118 30.1167 19.5987L30.1161 19.5974L30.1155 19.5964C30.1392 19.5868 30.1659 19.5734 30.1951 19.5588C30.2095 19.5516 30.2245 19.5441 30.24 19.5366C30.2543 19.529 30.2686 19.5214 30.2829 19.5137L30.4001 19.4474C30.479 19.4011 30.5571 19.3514 30.6344 19.2985L30.6488 19.2882C30.6678 19.2747 30.6853 19.2621 30.7011 19.2518C30.6789 19.2676 30.6567 19.2832 30.6344 19.2985C30.6159 19.3116 30.5963 19.3254 30.5755 19.339C30.5271 19.3707 30.4718 19.4069 30.4176 19.4376L30.4001 19.4474C30.3612 19.4703 30.3222 19.4924 30.2829 19.5137L30.255 19.5294L30.24 19.5366C30.1991 19.5581 30.158 19.5788 30.1167 19.5987C30.1192 19.6062 30.1077 19.6225 29.9656 19.6848C30.2817 19.5462 30.616 19.3467 30.9062 19.0978C31.0512 18.9733 31.1916 18.8422 31.31 18.7009C31.4342 18.5608 31.541 18.4173 31.6293 18.2762C31.674 18.2028 31.6787 18.2095 31.634 18.2829C31.595 18.3574 31.5056 18.5042 31.3459 18.7019C31.1803 18.8985 31.0239 19.05 30.8638 19.1892C30.698 19.3272 30.5229 19.4518 30.2923 19.5833L30.3016 19.5968C30.4515 19.5084 30.6382 19.386 30.8029 19.2536C30.9687 19.1156 31.1298 18.9708 31.246 18.8408C31.3058 18.782 31.2506 18.8476 31.1954 18.9131C31.1819 18.9292 31.168 18.9453 31.1557 18.9595C31.1179 19.003 31.0955 19.0289 31.1449 18.9854C31.2669 18.8565 31.3761 18.7311 31.4817 18.5932C31.3313 18.8045 31.1301 19.0294 30.8976 19.2308C30.665 19.4321 30.4092 19.5998 30.1728 19.7302C30.1226 19.7598 30.0706 19.7884 30.0239 19.8141C29.9313 19.8651 29.8596 19.9045 29.865 19.9172C29.4462 20.0889 29.0431 20.1816 28.678 20.2348C28.3129 20.288 27.9799 20.3005 27.6862 20.2971L27.6632 20.2942C27.5511 20.2802 27.2809 20.2465 26.9756 20.1556C26.8111 20.1066 26.6443 20.0396 26.4774 19.9727C26.4404 19.9547 26.4038 19.9364 26.3678 19.9181Z" fill="url(#paint0_linear)"/>
<path fill-rule="evenodd" clip-rule="evenodd" d="M48.9141 0.126516C48.921 0.124275 48.9277 0.122142 48.9341 0.120111C48.9591 0.112141 48.9791 0.105742 48.9904 0.100561C49.004 0.0981318 49.0168 0.0957033 49.0287 0.0934443C49.0427 0.090778 49.0556 0.0883409 49.0671 0.0864291C49.0827 0.0840739 49.0965 0.0817195 49.1102 0.0793643C49.1171 0.0781874 49.124 0.0770069 49.1311 0.07583C49.1524 0.0740635 49.1737 0.0705305 49.195 0.066997C49.2184 0.0652306 49.244 0.0634614 49.2739 0.0616946C49.2585 0.0598737 49.2895 0.0585217 49.3154 0.0573974C49.3397 0.0563401 49.3593 0.0554859 49.3314 0.0546298C49.2844 0.0525229 49.2639 0.0535564 49.2405 0.0547347C49.2247 0.0555323 49.2076 0.056396 49.1801 0.056396L49.1822 0.0581641C49.0245 0.0669973 48.8667 0.0952624 48.7132 0.141195C48.5598 0.187127 48.4084 0.252493 48.2656 0.337291C48.1761 0.399123 48.0865 0.468022 48.0013 0.549287C47.916 0.628786 47.8371 0.718886 47.7775 0.817817C47.7156 0.923815 47.6709 1.04571 47.6517 1.16761C47.6304 1.28244 47.6389 1.40434 47.6687 1.5068C47.6773 1.53154 47.673 1.5545 47.6666 1.57747C47.6634 1.58673 47.6596 1.596 47.6558 1.60535C47.6494 1.62098 47.6429 1.63686 47.6389 1.65343C47.6687 1.75237 47.7071 1.86543 47.7689 1.9785C47.8307 2.08803 47.9139 2.19756 48.0183 2.28059C48.0141 2.27706 48.0119 2.27352 48.0119 2.26999C48.032 2.28801 48.0494 2.30712 48.0663 2.32561C48.071 2.33068 48.0755 2.33571 48.0801 2.34066C48.0937 2.35531 48.1065 2.3714 48.1189 2.38709C48.1259 2.396 48.1329 2.40477 48.1398 2.41309C48.159 2.43782 48.1803 2.46255 48.2059 2.48375L48.2443 2.51555C48.2592 2.52615 48.2741 2.53498 48.289 2.54382C48.2965 2.53389 48.3082 2.53617 48.3197 2.5384C48.3246 2.53935 48.3294 2.54029 48.3338 2.54029C48.3295 2.55089 48.3423 2.56149 48.3637 2.57562C48.3743 2.58268 48.3892 2.58975 48.4042 2.59682C48.4212 2.60388 48.4383 2.61095 48.4596 2.61802C48.5427 2.64452 48.6578 2.66748 48.7729 2.67632C48.888 2.68692 49.0032 2.68338 49.0905 2.67632C49.1007 2.67548 49.1108 2.67504 49.1205 2.67462C49.1312 2.67415 49.1413 2.67371 49.1502 2.67278C49.1694 2.67102 49.1843 2.67102 49.1993 2.67102C49.227 2.67102 49.2462 2.67278 49.2504 2.67808C49.2653 2.67455 49.2803 2.67102 49.2973 2.66925C49.355 2.67744 49.4151 2.68668 49.4769 2.69616C49.495 2.69895 49.5134 2.70178 49.5318 2.70458C49.6128 2.71518 49.6959 2.72578 49.7791 2.72932C49.8217 2.73108 49.8622 2.72932 49.9027 2.72755C49.9432 2.72402 49.9837 2.72048 50.0221 2.71341C50.0605 2.70635 50.0988 2.69752 50.1329 2.68515C50.15 2.67985 50.167 2.67278 50.1841 2.66572C50.1946 2.66134 50.2044 2.65629 50.2138 2.6514C50.2196 2.64839 50.2253 2.64544 50.231 2.64275C50.2352 2.63568 50.2395 2.62818 50.2438 2.62067C50.248 2.61316 50.2523 2.60565 50.2566 2.59858C50.2651 2.58445 50.2736 2.56855 50.28 2.55442C50.2949 2.52439 50.3077 2.49612 50.3141 2.46609C50.3467 2.46801 50.3513 2.45209 50.3568 2.43349C50.3613 2.41796 50.3664 2.40057 50.3887 2.39012C50.4974 2.41132 50.5571 2.39012 50.5742 2.36892C50.5934 2.34772 50.572 2.32652 50.5252 2.32829L50.5507 2.29649C50.555 2.29119 50.5593 2.28633 50.5635 2.28147C50.5678 2.27661 50.572 2.27176 50.5763 2.26646C50.5906 2.25022 50.6063 2.23398 50.621 2.21878C50.6239 2.21579 50.6268 2.21283 50.6296 2.20992C50.6381 2.20109 50.6467 2.19226 50.6552 2.18166C50.6594 2.17725 50.6637 2.17239 50.668 2.16754C50.6722 2.16268 50.6765 2.15781 50.6808 2.15339C50.6957 2.13573 50.7106 2.11629 50.7234 2.09686C50.7404 2.05799 50.7532 2.01736 50.7639 1.97673C50.7703 1.9414 50.8001 1.9361 50.8406 1.9361C50.8526 1.88631 50.8647 1.87693 50.8816 1.86368C50.8948 1.85341 50.9109 1.84083 50.9323 1.80536C50.9451 1.80536 50.9515 1.7877 50.9557 1.76473C50.9579 1.74177 50.9557 1.70997 50.9536 1.67817C50.9518 1.66489 50.9497 1.65193 50.9476 1.63953C50.9448 1.62222 50.9421 1.60601 50.9408 1.5916C50.9366 1.56687 50.9344 1.5492 50.9387 1.5439L50.943 1.5598C50.9451 1.54744 50.9494 1.53684 50.9557 1.52624C50.96 1.51564 50.9643 1.50504 50.9707 1.49444C50.976 1.48473 50.9819 1.47502 50.9877 1.4653C50.9936 1.45559 50.9994 1.44585 51.0048 1.43614C51.0282 1.39727 51.0453 1.35664 51.041 1.30717C51.041 1.23827 51.0282 1.16761 51.0069 1.10048C50.9877 1.03158 50.9579 0.966213 50.9259 0.902614C50.8598 0.777183 50.7724 0.665885 50.6872 0.57402C50.6773 0.577298 50.6857 0.5859 50.6951 0.595415C50.7059 0.606409 50.7179 0.618622 50.7042 0.625251C50.6594 0.568719 50.6125 0.513954 50.5593 0.464489C50.5337 0.439756 50.506 0.415025 50.4783 0.392059C50.4484 0.369099 50.4186 0.347901 50.3888 0.326707C50.3746 0.313643 50.3569 0.299598 50.3452 0.290317C50.341 0.287055 50.3377 0.284364 50.3354 0.282526C50.3139 0.267662 50.3071 0.266137 50.3001 0.264547C50.2946 0.263302 50.2889 0.262018 50.2757 0.254261L50.2779 0.245428C50.2523 0.236594 50.2374 0.227759 50.2225 0.217159C50.2075 0.206559 50.1926 0.197727 50.1692 0.188894C50.1649 0.190661 50.1479 0.183595 50.1329 0.176528C50.1351 0.172878 50.1214 0.168283 50.1085 0.163965C50.0964 0.159923 50.0851 0.156124 50.0882 0.153562L50.086 0.152853L50.0837 0.15208C50.0755 0.149422 50.0695 0.14747 50.0605 0.142961C50.0582 0.142034 50.0525 0.14062 50.0447 0.138721C50.0377 0.137 50.0291 0.134881 50.02 0.132362C49.9986 0.127062 49.9731 0.121762 49.9475 0.116462C49.9219 0.111163 49.8963 0.105862 49.8771 0.102329C49.869 0.100825 49.8612 0.0996398 49.8546 0.09864C49.8457 0.0972903 49.8391 0.096277 49.8366 0.0952621L49.8281 0.0917278C49.8025 0.0846613 49.7897 0.0864283 49.8047 0.0899615C49.7993 0.0890782 49.794 0.0877541 49.7887 0.0864291C49.7833 0.0851042 49.778 0.0837782 49.7727 0.0828948L49.7769 0.0828948L49.745 0.07583C49.7386 0.0740635 49.7322 0.0705314 49.7428 0.0705314C49.7236 0.0687649 49.7023 0.0652281 49.6853 0.0616946C49.7109 0.0669946 49.7386 0.0740616 49.7663 0.0828948C49.7737 0.0846616 49.7807 0.0868701 49.7876 0.0890784C49.7945 0.0912867 49.8015 0.0934953 49.8089 0.0952621C49.8153 0.0979122 49.8217 0.10012 49.8281 0.102329C49.8345 0.104536 49.8409 0.106746 49.8473 0.109394C49.8413 0.108394 49.8338 0.106261 49.8259 0.103958C49.8197 0.102193 49.8133 0.100326 49.8068 0.0987945C49.8012 0.0974666 49.7956 0.0958903 49.7901 0.0943446C49.7809 0.0917778 49.7721 0.0893 49.7642 0.0881972C49.7606 0.087205 49.7563 0.085652 49.7514 0.083858C49.7475 0.0824582 49.7432 0.0809133 49.7386 0.0793643C49.7279 0.0775978 49.7173 0.0740649 49.7066 0.0705314C49.7007 0.0685619 49.6941 0.0671396 49.6872 0.0656562C49.6817 0.0644787 49.676 0.0632579 49.6704 0.0616946C49.664 0.0608113 49.6581 0.0594893 49.6522 0.0581641C49.6464 0.0568392 49.6405 0.0555132 49.6341 0.0546298C49.6302 0.0539772 49.6268 0.0540487 49.623 0.0541301C49.6164 0.0542689 49.6084 0.0544368 49.5936 0.0510955C49.5875 0.0490818 49.5801 0.048216 49.5712 0.0471892C49.5646 0.0464148 49.5571 0.045548 49.5489 0.0440288C49.5702 0.0457952 49.5915 0.0475628 49.6149 0.0510955C49.6136 0.0488751 49.5929 0.0459591 49.5735 0.0432201C49.562 0.0416013 49.5509 0.0400424 49.5446 0.0387302C49.5394 0.0387302 49.5218 0.0374337 49.5025 0.0360198C49.4899 0.0350984 49.4766 0.0341265 49.4657 0.0334296C49.4747 0.0321929 49.4606 0.030955 49.4456 0.0297179C49.4613 0.0295195 49.4702 0.028213 49.4702 0.028213L49.4717 0.0281882L49.4743 0.0281386C49.4743 0.0281386 49.4731 0.028213 49.4702 0.028213C49.4639 0.0283117 49.4514 0.0285282 49.4369 0.0290027C49.4334 0.0287121 49.4302 0.0284216 49.4273 0.028131C49.4082 0.0263645 49.3975 0.028131 49.4039 0.028131C49.4039 0.028131 49.4044 0.0293567 49.4077 0.0298934L49.3954 0.0298972C49.357 0.0316631 49.3186 0.0334296 49.3293 0.0334296C49.3384 0.0343715 49.3341 0.0353135 49.3311 0.0359874C49.3285 0.036578 49.3267 0.0369639 49.3357 0.0369639C49.3852 0.0378565 49.3684 0.0419051 49.3517 0.0459208C49.3353 0.0498544 49.3191 0.0537556 49.3655 0.0546298C49.3272 0.0510966 49.3783 0.0510952 49.421 0.0528617C49.4246 0.0543578 49.4373 0.0558545 49.4593 0.0584235C49.4633 0.0588874 49.4676 0.0593882 49.4721 0.0599284C49.4902 0.0611811 49.4901 0.060247 49.4901 0.060247L49.4913 0.0599284C49.5062 0.0616952 49.5318 0.0652306 49.5275 0.0669971C49.5408 0.0669971 49.55 0.0690577 49.5607 0.071466C49.5671 0.0729198 49.5741 0.0745002 49.583 0.07583C49.5944 0.0767775 49.5918 0.0757346 49.5918 0.0757346C49.5918 0.0757346 49.59 0.0750108 49.5979 0.07583C49.6299 0.08113 49.6725 0.0899637 49.6959 0.0970302C49.7045 0.100564 49.7322 0.112927 49.7109 0.109394C49.6874 0.104094 49.6922 0.104095 49.6967 0.104095C49.7013 0.104095 49.7055 0.104094 49.681 0.0987945C49.687 0.102542 49.6835 0.101874 49.6764 0.100536C49.6734 0.0999819 49.6698 0.0993118 49.6661 0.0987945C49.6596 0.09802 49.6526 0.0969081 49.6463 0.095901C49.6383 0.0946111 49.6313 0.0934959 49.6277 0.0934959C49.6307 0.0941056 49.6339 0.0949258 49.6373 0.0958114C49.6439 0.0974911 49.6513 0.0994045 49.6597 0.100561C49.6661 0.102327 49.673 0.103653 49.68 0.104978C49.6869 0.106303 49.6938 0.107627 49.7002 0.109394L49.6959 0.107629C49.7194 0.111163 49.7642 0.123529 49.7876 0.132362C49.7852 0.132362 49.7852 0.133317 49.7852 0.133317C49.7852 0.133317 49.7854 0.134546 49.7748 0.132362C49.7794 0.133889 49.784 0.135087 49.7885 0.13624C49.7943 0.137753 49.7998 0.139189 49.8047 0.141195L49.8084 0.141523C49.8084 0.141523 49.8103 0.141782 49.8047 0.139427C49.8196 0.14296 49.8324 0.148262 49.843 0.153562C49.843 0.153562 49.8536 0.157607 49.8675 0.162256L49.8714 0.163534C49.8781 0.166318 49.8934 0.172551 49.9134 0.180061C49.9368 0.188894 49.9667 0.20126 49.9965 0.213626C50.0231 0.224658 50.048 0.237096 50.0683 0.247177L50.0754 0.250726C50.0967 0.263093 50.1116 0.271924 50.1137 0.273691C50.1287 0.282524 50.1457 0.291359 50.1436 0.289592C50.1557 0.297805 50.153 0.297063 50.1497 0.296129C50.1465 0.295255 50.1428 0.294213 50.15 0.300191C50.15 0.300191 50.15 0.298426 50.1542 0.30196L50.1692 0.314325C50.1884 0.324925 50.2097 0.340824 50.231 0.356723C50.2409 0.364908 50.2519 0.373093 50.2625 0.381036C50.2726 0.388524 50.2824 0.395798 50.2907 0.402656C50.2866 0.399944 50.2819 0.397231 50.2763 0.39402L50.2735 0.392408L50.2699 0.390331L50.2675 0.388916C50.0254 0.193016 49.6944 0.0722957 49.3293 0.0722957C49.1844 0.0722957 49.0448 0.0913187 48.9141 0.126516ZM49.4369 0.0290027C49.439 0.0291833 49.4412 0.0293618 49.4434 0.0295424L49.4456 0.0297179C49.4366 0.0298311 49.4259 0.0298729 49.4147 0.0298877C49.4223 0.0295213 49.4298 0.0292323 49.4369 0.0290027ZM49.9224 0.181226C49.9281 0.183359 49.934 0.185574 49.9399 0.187814C49.9347 0.185819 49.9294 0.183806 49.924 0.181827L49.9224 0.181226ZM49.9829 0.205818C49.9933 0.210515 50.0032 0.215011 50.0122 0.218402C50.008 0.216077 50.0032 0.213438 49.9965 0.210094C49.9965 0.210094 49.991 0.208252 49.9803 0.20388C49.9748 0.20164 49.9681 0.198937 49.9608 0.195995C49.9683 0.199169 49.9757 0.202553 49.9829 0.205818ZM49.3895 0.0351233C49.3863 0.0351654 49.3829 0.0351826 49.3795 0.0351901C49.3611 0.0351578 49.3427 0.034937 49.3336 0.0334296L49.3527 0.0334296C49.3387 0.0334296 49.3717 0.0302535 49.4077 0.0298934C49.4139 0.0308566 49.4257 0.0317009 49.4359 0.0324168C49.451 0.0334784 49.4632 0.0343373 49.4508 0.0351958C49.4444 0.0334294 49.4082 0.0316653 49.389 0.0316653L49.3924 0.0331111C49.395 0.0336745 49.3968 0.0340858 49.3895 0.0351233ZM49.3805 0.0404983C49.3704 0.0404983 49.3732 0.0395234 49.3825 0.0385985C49.3825 0.0385985 49.3835 0.0398656 49.3805 0.0404983ZM49.4342 0.0361915C49.4473 0.0356345 49.4587 0.0353876 49.4637 0.0352798L49.4654 0.0352454C49.4685 0.0353576 49.4719 0.0357304 49.4764 0.0369639C49.4674 0.0369639 49.4499 0.0369627 49.4342 0.0361915Z" fill="url(#paint1_linear)"/>
<path d="M98 117.586L98 5.67165C78.2106 7.7913 61.8516 12.2847 51.1238 19.5508C26.6846 36.1031 14.5995 63.0397 15.3602 96.1904L15.134 96.5316L14.8112 97.0472C13.9334 98.4483 13.096 99.7853 12.6264 100.964C13.0524 101.084 13.6865 100.898 14.408 100.686C14.7635 100.582 15.1398 100.471 15.5234 100.388C15.8467 106.314 16.5689 112.428 17.6926 118.706C17.5809 118.668 17.4693 118.637 17.3573 118.617C17.2965 118.606 17.2357 118.597 17.1749 118.592C17.1349 118.588 17.095 118.586 17.055 118.585L17.1482 119.016L17.2303 119.39L17.3154 119.77L17.3727 120.024L17.471 120.452L17.5597 120.836L17.7834 121.792C18.7717 126.002 19.611 129.577 18.8218 133.242C19.9563 135.617 20.8215 136.671 21.4194 137C21.444 137.013 21.4684 137.026 21.4926 137.037L21.5221 137.05C21.5413 137.059 21.5605 137.066 21.5794 137.073C21.5978 137.08 21.6161 137.086 21.6342 137.092C21.6783 137.106 21.7216 137.116 21.7642 137.123C21.8503 137.137 21.9331 137.137 22.0135 137.126C22.8039 139.87 23.665 142.639 24.5965 145.432C24.1438 145.542 23.641 145.579 23.1023 145.581C22.8288 145.588 22.548 145.584 22.2624 145.574C22.1735 145.572 22.0839 145.568 21.9941 145.564L21.9531 145.563C21.8286 145.557 21.7033 145.55 21.5776 145.544L21.5692 145.543L21.5518 145.542L21.5423 145.542L21.4354 145.537L21.3983 145.535L21.3593 145.533C18.8999 145.404 16.2778 145.266 14.9521 148.246C11.2228 142.973 8.08656 136.443 5.68129 130.308C4.36016 127.03 3.22929 123.901 2.24787 121.185L2.23719 121.156L2.22641 121.125L2.2241 121.118L1.70987 119.696L1.48909 119.09C1.34808 118.703 1.21026 118.328 1.0758 117.966C0.691834 116.932 0.334208 116.002 -5.03436e-06 115.2C1.88064 123.318 4.29115 131.237 7.09867 138.824C5.75206 138.56 5.41913 141.339 5.098 144.02L5.08269 144.148L5.02164 144.654L4.97098 145.057L4.94881 145.227L4.91767 145.457L4.88797 145.668L4.8639 145.831C4.66909 147.285 4.34102 148.475 3.67808 148.542C3.01502 148.611 1.88432 147.557 0.284032 144.589C2.44228 157 7.58649 169.864 13.9874 181.602C17.1883 187.471 20.7199 193.141 24.3164 198.414C27.9133 203.687 31.5753 208.631 35.1037 213.177L35.0258 212.864C35.0076 212.793 34.9892 212.722 34.9705 212.65L34.9308 212.498C34.9067 212.407 34.8823 212.315 34.8576 212.223C34.8187 212.078 34.7792 211.933 34.7393 211.787L34.6187 211.348C33.8568 208.58 33.1223 205.912 34.7499 205.583C40.6443 212.647 39.6393 214.708 38.6218 216.794L38.5397 216.963L38.4817 217.084L38.4461 217.158L38.4004 217.255L38.3526 217.36L38.299 217.48L38.2349 217.631C38.2147 217.68 38.195 217.729 38.1759 217.779L38.1523 217.841L38.136 217.884L38.1113 217.953L38.0909 218.012L38.0843 218.031L38.06 218.105C38.0433 218.157 38.0271 218.21 38.0118 218.263C38.0041 218.289 37.9967 218.316 37.9895 218.343C37.9684 218.422 37.9489 218.503 37.9314 218.585L37.9179 218.651L37.9053 218.717C41.1643 221.812 43.7525 222.399 46.3396 222.524C47.0292 222.557 47.709 222.553 48.3937 222.548C50.2767 222.536 52.1934 222.524 54.4331 223.293C55.2353 225.404 55.97 227.251 56.7044 228.9C57.1084 229.808 57.5122 230.655 57.9048 231.453C58.1507 231.953 58.3924 232.434 58.627 232.899L58.8396 233.319C59.2233 234.078 59.6013 234.793 59.9724 235.477L60.1398 235.785L60.274 236.03L60.3783 236.219C60.5051 236.449 60.631 236.676 60.7558 236.9L61.2706 237.82L61.3177 237.905C61.5241 238.273 61.727 238.635 61.9265 238.995C61.9982 239.124 62.0694 239.252 62.1402 239.381L62.2994 239.671L62.4582 239.963L62.5736 240.178C64.8407 244.332 66.7755 248.289 69.0534 256.208L72.557 252.169C73.3606 254.874 74.5596 256.654 75.7575 258.038C77.0215 259.355 78.3504 260.21 79.8119 261.064C81.2736 261.919 82.7351 262.773 84.1316 264.024C85.5942 265.275 86.9921 266.988 88.3263 269.626C87.9331 270.811 84.0414 268.533 80.7934 266.631L80.7567 266.609C84.6655 269.77 85.4353 272.226 86.1813 274.605C86.9575 277.081 87.7083 279.475 91.945 282.495C90.1085 282.164 88.293 281.812 86.4747 281.452C85.5264 281.263 84.5773 281.073 83.6242 280.881L83.6216 280.881L83.6087 280.878L82.2561 280.607C83.0191 281.408 83.8585 282.234 84.721 283.064C84.8557 283.194 84.9909 283.324 85.1266 283.454L85.3839 283.699L86.1163 284.397L86.3146 284.585C91.2162 289.241 95.8366 293.631 90.7847 294.056C93.1513 295.048 95.5566 296.399 98 298L98 154.539C97.5913 152.054 97.2574 149.542 96.9897 147.022C96.5333 142.207 96.4152 137.278 96.7725 132.294L96.7753 132.062L96.7773 131.867C96.7787 131.714 96.7797 131.56 96.7805 131.406L96.783 130.786L96.7829 130.771C96.7882 129.162 96.7937 127.527 96.9699 125.798L97.1057 124.122C97.1508 123.563 97.1962 123.005 97.292 122.404C97.3107 122.249 97.3303 122.096 97.3504 121.943C97.366 121.825 97.3819 121.707 97.398 121.589C97.42 121.429 97.4424 121.269 97.4651 121.11L97.5295 120.658C97.6092 120.101 97.689 119.544 97.7581 118.974C97.7629 118.916 97.77 118.855 97.7783 118.793C97.7897 118.708 97.8035 118.621 97.8174 118.534C97.8282 118.467 97.8389 118.4 97.8484 118.334C97.8603 118.252 97.8705 118.171 97.8767 118.094L98 117.586Z" fill="url(#paint2_linear)"/>
<path d="M11.6308 77.7843L12.6199 75.8001C12.9213 65.3641 14.7472 54.5937 18.7631 44.2787C14.152 55.1896 11.9964 66.6218 11.6308 77.7843Z" fill="url(#paint3_linear)"/>
<path d="M80.2191 270.345L80.4759 270.898C80.5988 271.164 80.7205 271.431 80.8377 271.695L80.6789 271.503L80.6129 271.423C80.521 271.311 80.4311 271.201 80.3434 271.093L80.1323 270.831L79.9056 270.546C79.718 270.309 79.5407 270.08 79.3734 269.86C78.6338 268.888 78.0901 268.083 77.7079 267.411C77.4397 266.986 77.2255 266.626 77.0653 266.321C76.8272 265.868 76.7078 265.537 76.7071 265.3C76.6383 264.508 77.7005 264.835 79.2282 265.623C79.2404 265.617 79.2514 265.611 79.2617 265.604C79.2684 265.599 79.2749 265.594 79.281 265.589C79.2956 265.577 79.3087 265.566 79.3219 265.553L79.3245 265.551C79.3905 265.489 79.4602 265.424 79.6918 265.424C79.8511 265.546 79.9962 265.664 80.1322 265.779C80.3229 265.939 80.4957 266.093 80.6646 266.244L80.6669 266.246L80.6695 266.248L80.6734 266.252L80.6816 266.259L80.6853 266.262L80.7826 266.349L80.9246 266.475C81.0001 266.541 81.0764 266.608 81.1547 266.674L80.7294 266.444C80.5074 266.324 80.2966 266.209 80.0924 266.097L79.2282 265.623C78.1776 265.957 79.1645 268.079 80.2183 270.343L80.2191 270.345Z" fill="url(#paint4_linear)"/>
<path d="M71.2166 270.269C72.879 271.784 74.5411 273.232 76.6655 273.82L77.5335 275.865L74.6746 273.496L71.8156 271.06C71.6483 270.923 71.4815 270.786 71.3152 270.648C71.211 270.561 71.107 270.475 71.0032 270.388L70.8081 270.225C70.1157 269.643 69.4306 269.054 68.7494 268.462C67.8923 267.716 67.0415 266.965 66.1908 266.213L66.1642 266.189C67.0939 266.648 67.958 267.307 68.756 268.031C69.6205 268.755 70.4183 269.479 71.2166 270.269Z" fill="url(#paint5_linear)"/>
</g>
<defs>
<linearGradient id="paint0_linear" x1="49.1416" y1="298.345" x2="-60.2832" y2="259.948" gradientUnits="userSpaceOnUse">
<stop stop-color="#FC8282" stop-opacity="0"/>
<stop offset="1" stop-color="#3300FF"/>
</linearGradient>
<linearGradient id="paint1_linear" x1="49.1416" y1="298.345" x2="-60.2832" y2="259.948" gradientUnits="userSpaceOnUse">
<stop stop-color="#FC8282" stop-opacity="0"/>
<stop offset="1" stop-color="#3300FF"/>
</linearGradient>
<linearGradient id="paint2_linear" x1="49.1416" y1="298.345" x2="-60.2832" y2="259.948" gradientUnits="userSpaceOnUse">
<stop stop-color="#FC8282" stop-opacity="0"/>
<stop offset="1" stop-color="#3300FF"/>
</linearGradient>
<linearGradient id="paint3_linear" x1="49.1416" y1="298.345" x2="-60.2832" y2="259.948" gradientUnits="userSpaceOnUse">
<stop stop-color="#FC8282" stop-opacity="0"/>
<stop offset="1" stop-color="#3300FF"/>
</linearGradient>
<linearGradient id="paint4_linear" x1="49.1416" y1="298.345" x2="-60.2832" y2="259.948" gradientUnits="userSpaceOnUse">
<stop stop-color="#FC8282" stop-opacity="0"/>
<stop offset="1" stop-color="#3300FF"/>
</linearGradient>
<linearGradient id="paint5_linear" x1="49.1416" y1="298.345" x2="-60.2832" y2="259.948" gradientUnits="userSpaceOnUse">
<stop stop-color="#FC8282" stop-opacity="0"/>
<stop offset="1" stop-color="#3300FF"/>
</linearGradient>
</defs>
</svg>
