<svg width="292" height="58" viewBox="0 0 292 58" fill="none" xmlns="http://www.w3.org/2000/svg">
<path d="M24.287 0.978997H0.41V43H24.287V33.739H11.309V26.494H23.594V17.233H11.309V10.24H24.287V0.978997ZM51.5822 33.928C49.7552 35.503 47.8652 35.818 46.4162 35.818C43.8332 35.818 42.1952 34.684 41.2502 33.676C40.0532 32.353 39.4862 30.526 39.4862 28.951C39.4862 27.313 40.0532 25.486 41.4392 24.1C42.4472 23.092 43.9592 22.147 46.3532 22.147C48.4952 22.147 50.2592 23.029 51.5822 23.974V15.532C49.0622 14.272 46.7942 13.957 45.0302 13.957C40.2422 13.957 36.3362 15.721 33.6902 18.241C30.8552 21.013 29.1542 24.982 29.1542 29.14C29.1542 33.298 30.8552 37.078 33.5012 39.661C35.5172 41.614 39.1082 43.945 44.5892 43.945C46.6682 43.945 48.8732 43.693 51.5822 42.37V33.928ZM73.11 22.462C74.685 22.462 76.449 23.218 77.583 24.289C78.843 25.549 79.536 27.376 79.536 28.888C79.536 30.526 78.843 32.164 77.583 33.361C76.386 34.558 74.748 35.251 73.11 35.251C71.409 35.251 69.771 34.558 68.574 33.361C67.44 32.227 66.621 30.589 66.621 28.888C66.621 27.25 67.314 25.486 68.574 24.289C69.708 23.218 71.472 22.462 73.11 22.462ZM89.994 28.888C89.994 23.848 87.726 20.572 85.647 18.556C83.316 16.351 79.284 13.894 73.047 13.894C66.936 13.894 62.841 16.288 60.51 18.556C58.431 20.572 56.163 23.848 56.163 28.888C56.163 32.668 57.423 36.259 60.51 39.283C64.416 43.126 68.952 43.945 73.047 43.945C77.583 43.945 81.93 42.937 85.647 39.283C88.734 36.259 89.994 32.668 89.994 28.888ZM94.0467 40.669C98.8977 43.63 102.867 43.945 105.387 43.945C107.718 43.945 112.506 43.693 115.782 40.417C117.168 39.094 118.617 36.826 118.617 33.424C118.617 31.345 117.861 29.14 116.475 27.817C115.656 26.998 113.64 25.99 112.317 25.612L110.49 25.108C108.915 24.667 108.096 24.667 107.151 24.289C106.521 24.037 105.954 23.596 105.954 22.714C105.954 22.084 106.269 21.643 106.836 21.328C107.466 20.95 108.159 20.761 109.167 20.761C110.994 20.761 113.073 21.517 114.459 22.147L117.861 15.721C116.223 15.028 113.01 13.894 108.852 13.894C104.694 13.894 100.914 15.091 98.7717 17.296C97.1967 18.934 96.1257 21.454 96.1257 24.163C96.1257 26.305 96.8817 27.88 97.9527 29.014C99.4647 30.652 101.481 31.156 102.867 31.471L105.513 32.101C106.521 32.353 107.529 32.542 108.159 33.109C108.6 33.487 108.663 33.928 108.663 34.369C108.663 34.873 108.6 35.251 108.159 35.692C107.529 36.259 106.332 36.448 105.576 36.448C104.505 36.448 102.93 36.196 101.67 35.755C100.284 35.314 98.8347 34.558 97.6377 33.676L94.0467 40.669ZM124.497 57.427H135.774L158.391 14.839H146.862L139.554 29.266L132.057 14.839H120.339L133.947 39.157L124.497 57.427ZM157.723 40.669C162.574 43.63 166.543 43.945 169.063 43.945C171.394 43.945 176.182 43.693 179.458 40.417C180.844 39.094 182.293 36.826 182.293 33.424C182.293 31.345 181.537 29.14 180.151 27.817C179.332 26.998 177.316 25.99 175.993 25.612L174.166 25.108C172.591 24.667 171.772 24.667 170.827 24.289C170.197 24.037 169.63 23.596 169.63 22.714C169.63 22.084 169.945 21.643 170.512 21.328C171.142 20.95 171.835 20.761 172.843 20.761C174.67 20.761 176.749 21.517 178.135 22.147L181.537 15.721C179.899 15.028 176.686 13.894 172.528 13.894C168.37 13.894 164.59 15.091 162.448 17.296C160.873 18.934 159.802 21.454 159.802 24.163C159.802 26.305 160.558 27.88 161.629 29.014C163.141 30.652 165.157 31.156 166.543 31.471L169.189 32.101C170.197 32.353 171.205 32.542 171.835 33.109C172.276 33.487 172.339 33.928 172.339 34.369C172.339 34.873 172.276 35.251 171.835 35.692C171.205 36.259 170.008 36.448 169.252 36.448C168.181 36.448 166.606 36.196 165.346 35.755C163.96 35.314 162.511 34.558 161.314 33.676L157.723 40.669ZM204.365 23.092V14.839H198.632V5.578H188.552V14.839H185.339V23.092H188.552V43H198.632V23.092H204.365ZM238.015 29.707C238.015 26.557 237.511 21.643 233.542 17.863C230.203 14.713 225.982 14.02 222.706 14.02C217.162 14.02 213.508 15.847 211.177 18.115C208.72 20.509 206.956 24.289 206.956 29.014C206.956 34.369 209.287 37.834 211.114 39.661C214.579 43.126 219.052 43.945 222.769 43.945C228.88 43.945 232.156 42.055 234.235 40.039C236.314 38.023 237.196 35.818 237.637 34.243H227.998C227.557 35.125 226.864 35.755 226.234 36.133C224.974 36.826 223.209 36.889 222.958 36.889C220.69 36.889 219.43 36.133 218.8 35.503C217.603 34.306 217.036 32.29 217.036 30.778H238.015V29.707ZM217.351 24.982C217.54 23.722 218.17 22.714 218.863 21.958C219.934 20.887 221.257 20.446 222.958 20.446C223.966 20.446 225.793 20.635 227.116 21.958C227.872 22.714 228.502 23.911 228.754 24.982H217.351ZM243.836 43H253.916V29.077C253.916 27.313 253.916 24.604 255.68 22.903C256.499 22.084 257.381 21.895 258.452 21.895C259.46 21.895 260.594 22.084 261.476 23.029C262.61 24.226 262.799 26.368 262.799 29.077V43H272.879V28.573C272.879 27.187 273.005 24.856 274.706 23.218C275.588 22.399 276.533 22.084 277.667 22.084C278.99 22.084 279.746 22.525 280.313 23.029C281.447 24.1 281.762 26.116 281.762 29.077V43H291.842V24.667C291.842 22.714 291.716 19.375 289.196 16.918C286.865 14.65 283.463 14.335 281.384 14.335C279.494 14.335 277.541 14.587 275.525 15.721C274.265 16.414 272.816 17.611 271.682 19.627C270.989 18.241 269.855 16.666 267.776 15.595C266.264 14.776 264.374 14.335 262.358 14.335C259.586 14.335 256.31 15.343 253.916 18.241V14.839H243.836V43Z" fill="#42506B"/>
</svg>
