<svg width="9" height="16" viewBox="0 0 9 16" fill="none" xmlns="http://www.w3.org/2000/svg">
<path d="M7.89917 0.575425L5.93038 0.572266C3.71851 0.572266 2.2891 2.03879 2.2891 4.30863V6.03134H0.309573C0.138518 6.03134 0 6.17001 0 6.34107V8.83708C0 9.00814 0.138676 9.14666 0.309573 9.14666H2.2891V15.4449C2.2891 15.6159 2.42762 15.7545 2.59868 15.7545H5.1814C5.35246 15.7545 5.49098 15.6158 5.49098 15.4449V9.14666H7.80551C7.97657 9.14666 8.11508 9.00814 8.11508 8.83708L8.11603 6.34107C8.11603 6.25894 8.08334 6.18028 8.02537 6.12216C7.96741 6.06403 7.88843 6.03134 7.8063 6.03134H5.49098V4.57097C5.49098 3.86906 5.65824 3.51274 6.57259 3.51274L7.89886 3.51226C8.06975 3.51226 8.20827 3.37359 8.20827 3.20269V0.884998C8.20827 0.714259 8.06991 0.57574 7.89917 0.575425Z" fill="white"/>
</svg>
