<svg width="16" height="16" viewBox="0 0 16 16" fill="none" xmlns="http://www.w3.org/2000/svg">
<path d="M14.3719 4.35298C13.6931 3.18991 12.7723 2.2691 11.6094 1.59035C10.4462 0.91157 9.17641 0.572266 7.79904 0.572266C6.42184 0.572266 5.15162 0.911674 3.98872 1.59035C2.82565 2.26907 1.90491 3.18991 1.2261 4.35298C0.547382 5.51602 0.208008 6.78607 0.208008 8.16309C0.208008 9.8172 0.690602 11.3046 1.65603 12.6257C2.62136 13.947 3.86842 14.8612 5.39711 15.3685C5.57505 15.4016 5.70678 15.3783 5.79243 15.2994C5.87811 15.2204 5.9209 15.1215 5.9209 15.003C5.9209 14.9832 5.91921 14.8054 5.91592 14.4693C5.91252 14.1332 5.91093 13.8399 5.91093 13.5897L5.68359 13.6291C5.53863 13.6556 5.35577 13.6669 5.13501 13.6637C4.91434 13.6606 4.68527 13.6375 4.44809 13.5945C4.21081 13.5519 3.99011 13.453 3.78582 13.2982C3.58163 13.1433 3.43668 12.9406 3.351 12.6904L3.25216 12.463C3.18628 12.3115 3.08256 12.1433 2.94086 11.9589C2.79917 11.7744 2.65588 11.6493 2.51093 11.5834L2.44172 11.5338C2.39561 11.5009 2.35282 11.4612 2.31325 11.4151C2.27371 11.3691 2.24411 11.3229 2.22435 11.2768C2.20454 11.2305 2.22095 11.1926 2.27375 11.1629C2.32654 11.1332 2.42195 11.1187 2.5604 11.1187L2.758 11.1483C2.8898 11.1747 3.05282 11.2536 3.24728 11.3854C3.44163 11.5172 3.6014 11.6885 3.72662 11.8992C3.87825 12.1695 4.06094 12.3754 4.2752 12.5171C4.48929 12.6588 4.70514 12.7295 4.92255 12.7295C5.13996 12.7295 5.32773 12.713 5.48594 12.6803C5.64398 12.6473 5.79226 12.5978 5.9307 12.5319C5.99 12.0902 6.15147 11.7509 6.41496 11.5138C6.0394 11.4743 5.70176 11.4149 5.40185 11.3358C5.10212 11.2567 4.79238 11.1282 4.47284 10.9502C4.15313 10.7723 3.88791 10.5515 3.67711 10.288C3.46628 10.0244 3.29325 9.67838 3.15827 9.25017C3.02322 8.82179 2.95568 8.32763 2.95568 7.76756C2.95568 6.9701 3.21602 6.29149 3.73659 5.73135C3.49273 5.13181 3.51575 4.45971 3.80573 3.71512C3.99682 3.65575 4.28022 3.7003 4.65577 3.84851C5.03139 3.99678 5.30641 4.1238 5.4811 4.22911C5.65579 4.33439 5.79575 4.4236 5.9012 4.49596C6.51414 4.3247 7.14667 4.23905 7.79897 4.23905C8.45127 4.23905 9.08394 4.3247 9.69691 4.49596L10.0725 4.25885C10.3293 4.10064 10.6326 3.95565 10.9817 3.82386C11.3309 3.69213 11.598 3.65585 11.7826 3.71522C12.079 4.45985 12.1054 5.13192 11.8615 5.73146C12.382 6.2916 12.6424 6.97038 12.6424 7.76767C12.6424 8.32774 12.5746 8.82345 12.4398 9.25512C12.3048 9.68686 12.1303 10.0326 11.9162 10.293C11.7019 10.5534 11.4349 10.7725 11.1154 10.9503C10.7958 11.1282 10.486 11.2566 10.1862 11.3358C9.88635 11.4149 9.5487 11.4744 9.17315 11.5139C9.51568 11.8103 9.68697 12.2782 9.68697 12.9174V15.0027C9.68697 15.1212 9.72817 15.2201 9.81063 15.2992C9.89299 15.378 10.0231 15.4013 10.201 15.3682C11.7299 14.8609 12.977 13.9467 13.9423 12.6255C14.9074 11.3044 15.3902 9.81693 15.3902 8.16281C15.3899 6.78596 15.0503 5.51602 14.3719 4.35298Z" fill="white"/>
</svg>
