<svg width="18" height="18" viewBox="0 0 18 18" fill="none" xmlns="http://www.w3.org/2000/svg">
<path d="M17.6434 10.6863V17.0088H13.9441V11.1068C13.9441 9.62289 13.4107 8.61439 12.0721 8.61439C11.0485 8.61439 10.4446 9.29718 10.1751 9.95428C10.078 10.1909 10.0485 10.5223 10.0485 10.8495V17.008H6.35289C6.35289 17.008 6.4025 7.01575 6.35289 5.98089H10.0493V7.54386C10.0443 7.5567 10.0335 7.56736 10.0284 7.58164H10.0493V7.54386C10.5431 6.79267 11.418 5.72215 13.3826 5.72215C15.821 5.72218 17.6434 7.298 17.6434 10.6863ZM2.48322 0.664062C1.21876 0.664062 0.390625 1.48654 0.390625 2.57131C0.390625 3.62685 1.19433 4.47712 2.43578 4.47712H2.45807C3.75057 4.47712 4.55139 3.62685 4.55139 2.57131C4.52624 1.48654 3.75061 0.664062 2.48322 0.664062ZM0.611333 17.0087H4.30846V5.98021H0.611333V17.0087Z" fill="white"/>
</svg>
