<svg width="18" height="15" viewBox="0 0 18 15" fill="none" xmlns="http://www.w3.org/2000/svg">
<path d="M17.5171 2.00993C16.896 2.28514 16.2296 2.47178 15.5294 2.5551C16.2444 2.12698 16.7916 1.44792 17.051 0.641247C16.3804 1.03772 15.6401 1.3256 14.8514 1.48167C14.2198 0.807869 13.3214 0.388184 12.3249 0.388184C10.4132 0.388184 8.86311 1.93824 8.86311 3.84893C8.86311 4.11992 8.89369 4.38459 8.95275 4.63768C6.07619 4.4932 3.52545 3.11502 1.81828 1.02084C1.51986 1.53121 1.3501 2.1259 1.3501 2.76071C1.3501 3.96176 1.96169 5.02149 2.88962 5.64149C2.32231 5.62252 1.78875 5.46646 1.32164 5.20706V5.25029C1.32164 6.92688 2.5153 8.32615 4.09803 8.64461C3.80805 8.72264 3.50226 8.76588 3.18592 8.76588C2.96239 8.76588 2.74622 8.74374 2.53427 8.70155C2.97502 10.0776 4.25304 11.0783 5.76726 11.1057C4.58309 12.0337 3.08997 12.5852 1.46822 12.5852C1.1888 12.5852 0.913564 12.5683 0.642578 12.5377C2.17472 13.5215 3.99367 14.0951 5.94863 14.0951C12.3165 14.0951 15.7973 8.82072 15.7973 4.24647L15.7857 3.79833C16.4658 3.31325 17.0542 2.70378 17.5171 2.00993Z" fill="white"/>
</svg>
